<svg xmlns="http://www.w3.org/2000/svg" width="81.712" height="53.535" viewBox="0 0 81.712 53.535">
    <g>
        <path fill="#ff4b55" d="M80.3 141.811H1.409A1.409 1.409 0 0 1 0 140.4V89.685a1.409 1.409 0 0 1 1.409-1.409H80.3a1.409 1.409 0 0 1 1.409 1.409V140.4a1.409 1.409 0 0 1-1.409 1.411z" transform="translate(0 -88.276)"/>
        <path fill="#f5f5f5" d="M182.47 161.341h-9.862v-9.862a1.409 1.409 0 0 0-1.409-1.409h-8.453a1.409 1.409 0 0 0-1.409 1.409v9.862h-9.862a1.409 1.409 0 0 0-1.409 1.409v8.45a1.409 1.409 0 0 0 1.409 1.409h9.862v9.862a1.409 1.409 0 0 0 1.409 1.409h8.454a1.409 1.409 0 0 0 1.409-1.409v-9.862h9.862a1.409 1.409 0 0 0 1.409-1.409v-8.453a1.409 1.409 0 0 0-1.41-1.406z" transform="translate(0 -88.276) translate(-126.117 -51.932)"/>
    </g>
</svg>
