<svg xmlns="http://www.w3.org/2000/svg" width="81.554" height="53.432" viewBox="0 0 81.554 53.432">
    <defs>
        <style>
            .cls-1{fill:#f5f5f5}.cls-2{fill:#ff4b55}
        </style>
    </defs>
    <g id="united-states" transform="translate(0 -88.276)">
        <path id="Path_5313" d="M80.147 141.708H1.406A1.406 1.406 0 0 1 0 140.3V89.682a1.406 1.406 0 0 1 1.406-1.406h78.742a1.406 1.406 0 0 1 1.406 1.406V140.3a1.406 1.406 0 0 1-1.407 1.408z" class="cls-1"/>
        <g id="Group_7556" transform="translate(0 88.276)">
            <path id="Path_5314" d="M81.554 92.386H0v-2.7a1.406 1.406 0 0 1 1.406-1.406h78.742a1.406 1.406 0 0 1 1.406 1.406v2.7z" class="cls-2" transform="translate(0 -88.276)"/>
            <path id="Rectangle_2987" d="M0 0H81.554V4.11H0z" class="cls-2" transform="translate(0 16.441)"/>
            <path id="Rectangle_2988" d="M0 0H81.554V4.11H0z" class="cls-2" transform="translate(0 8.22)"/>
            <path id="Path_5315" d="M81.554 247.208H1.406A1.406 1.406 0 0 1 0 245.8v-2.7h81.554z" class="cls-2" transform="translate(0 -218.437)"/>
            <path id="Rectangle_2989" d="M0 0H81.554V4.11H0z" class="cls-2" transform="translate(0 41.103)"/>
            <path id="Path_5316" d="M80.147 402.031H1.406A1.406 1.406 0 0 1 0 400.625v-2.7h81.554v2.7a1.406 1.406 0 0 1-1.407 1.406z" class="cls-2" transform="translate(0 -348.599)"/>
            <path id="Rectangle_2990" d="M0 0H81.554V4.11H0z" class="cls-2" transform="translate(0 32.882)"/>
        </g>
        <path id="Path_5317" fill="#41479b" d="M36.558 88.277H1.406A1.406 1.406 0 0 0 0 89.683v25.959a1.406 1.406 0 0 0 1.406 1.406h35.153a1.406 1.406 0 0 0 1.406-1.406V89.683a1.406 1.406 0 0 0-1.407-1.406z" transform="translate(0 -.001)"/>
        <g id="Group_7557" transform="translate(2.27 91.413)">
            <path id="Path_5318" d="M15.931 108.06l.311.933.984.007a.133.133 0 0 1 .078.239l-.791.585.3.938a.133.133 0 0 1-.2.148l-.8-.572-.8.572a.133.133 0 0 1-.2-.148l.3-.938-.791-.585A.133.133 0 0 1 14.4 109l.984-.007.311-.933a.132.132 0 0 1 .236 0z" class="cls-1" transform="translate(-14.253 -107.969)"/>
            <path id="Path_5319" d="M15.931 138.714l.311.933.984.007a.133.133 0 0 1 .078.239l-.791.585.3.938a.133.133 0 0 1-.2.148l-.8-.572-.8.572a.133.133 0 0 1-.2-.148l.3-.938-.791-.585a.133.133 0 0 1 .078-.239l.984-.007.311-.933a.132.132 0 0 1 .236 0z" class="cls-1" transform="translate(-14.253 -133.741)"/>
            <path id="Path_5320" d="M15.931 169.368l.311.933.984.007a.133.133 0 0 1 .078.239l-.791.585.3.938a.133.133 0 0 1-.2.148l-.8-.572-.8.572a.133.133 0 0 1-.2-.148l.3-.938-.791-.585a.133.133 0 0 1 .078-.239l.984-.007.311-.933a.132.132 0 0 1 .236 0z" class="cls-1" transform="translate(-14.253 -159.512)"/>
            <path id="Path_5321" d="M15.931 200.023l.311.933.984.008a.133.133 0 0 1 .078.239l-.791.585.3.938a.133.133 0 0 1-.2.148l-.8-.572-.8.572a.133.133 0 0 1-.2-.148l.3-.938-.791-.585a.133.133 0 0 1 .078-.239l.984-.007.311-.933a.132.132 0 0 1 .236-.001z" class="cls-1" transform="translate(-14.253 -185.284)"/>
            <path id="Path_5322" d="M15.931 230.676l.311.933.984.007a.133.133 0 0 1 .078.239l-.791.585.3.938a.133.133 0 0 1-.2.148l-.8-.572-.8.572a.133.133 0 0 1-.2-.148l.3-.938-.791-.585a.133.133 0 0 1 .078-.239l.984-.007.311-.933a.132.132 0 0 1 .236 0z" class="cls-1" transform="translate(-14.253 -211.054)"/>
            <path id="Path_5323" d="M39.724 123.089l.311.933.984.007a.133.133 0 0 1 .078.239l-.791.585.3.938a.133.133 0 0 1-.2.148l-.8-.572-.8.572a.133.133 0 0 1-.2-.148l.3-.938-.791-.585a.133.133 0 0 1 .078-.239l.984-.007.311-.933a.132.132 0 0 1 .236 0z" class="cls-1" transform="translate(-34.256 -120.604)"/>
            <path id="Path_5324" d="M39.724 153.743l.311.933.984.007a.133.133 0 0 1 .078.239l-.791.585.3.938a.133.133 0 0 1-.2.148l-.8-.572-.8.572a.133.133 0 0 1-.2-.148l.3-.938-.791-.585a.133.133 0 0 1 .078-.239l.984-.007.311-.933a.132.132 0 0 1 .236 0z" class="cls-1" transform="translate(-34.256 -146.376)"/>
            <path id="Path_5325" d="M39.724 184.4l.311.933.984.007a.133.133 0 0 1 .078.239l-.791.585.3.938a.133.133 0 0 1-.2.148l-.8-.572-.8.572a.133.133 0 0 1-.2-.148l.3-.938-.791-.585a.133.133 0 0 1 .078-.239l.984-.007.311-.933a.132.132 0 0 1 .236 0z" class="cls-1" transform="translate(-34.256 -172.147)"/>
            <path id="Path_5326" d="M39.724 215.052l.311.933.984.007a.133.133 0 0 1 .078.239l-.791.585.3.938a.133.133 0 0 1-.2.148l-.8-.572-.8.572a.133.133 0 0 1-.2-.148l.3-.938-.791-.585a.133.133 0 0 1 .078-.239l.984-.007.311-.933a.132.132 0 0 1 .236 0z" class="cls-1" transform="translate(-34.256 -197.919)"/>
            <path id="Path_5327" d="M63.517 108.059l.311.933.984.007a.133.133 0 0 1 .078.239l-.791.585.3.938a.133.133 0 0 1-.2.148l-.8-.572-.8.572a.133.133 0 0 1-.2-.148l.3-.938-.791-.585a.133.133 0 0 1 .062-.238l.984-.007.311-.933a.132.132 0 0 1 .252-.001z" class="cls-1" transform="translate(-54.259 -107.969)"/>
            <path id="Path_5328" d="M63.517 138.714l.311.933.984.007a.133.133 0 0 1 .078.239l-.791.585.3.938a.133.133 0 0 1-.2.148l-.8-.572-.8.572a.133.133 0 0 1-.2-.148l.3-.938-.791-.585a.133.133 0 0 1 .078-.239l.984-.007.311-.933a.132.132 0 0 1 .236 0z" class="cls-1" transform="translate(-54.259 -133.741)"/>
            <path id="Path_5329" d="M63.517 169.368l.311.933.984.007a.133.133 0 0 1 .078.239l-.791.585.3.938a.133.133 0 0 1-.2.148l-.8-.572-.8.572a.133.133 0 0 1-.2-.148l.3-.938-.791-.585a.133.133 0 0 1 .078-.239l.984-.007.311-.933a.132.132 0 0 1 .236 0z" class="cls-1" transform="translate(-54.259 -159.512)"/>
            <path id="Path_5330" d="M63.517 200.022l.311.933.984.008a.133.133 0 0 1 .078.239l-.791.585.3.938a.133.133 0 0 1-.2.148l-.8-.572-.8.572a.133.133 0 0 1-.2-.148l.3-.938-.791-.585a.133.133 0 0 1 .078-.239l.984-.007.311-.933a.132.132 0 0 1 .236-.001z" class="cls-1" transform="translate(-54.259 -185.283)"/>
            <path id="Path_5331" d="M63.517 230.676l.311.933.984.007a.133.133 0 0 1 .078.239l-.791.585.3.938a.133.133 0 0 1-.2.148l-.8-.572-.8.572a.133.133 0 0 1-.2-.148l.3-.938-.791-.585a.133.133 0 0 1 .078-.239l.984-.007.311-.933a.132.132 0 0 1 .236 0z" class="cls-1" transform="translate(-54.259 -211.054)"/>
            <path id="Path_5332" d="M87.311 123.089l.311.933.984.007a.133.133 0 0 1 .078.239l-.791.585.3.938a.133.133 0 0 1-.2.148l-.8-.572-.8.572a.133.133 0 0 1-.2-.148l.3-.938-.791-.585a.133.133 0 0 1 .078-.239l.984-.007.311-.933a.132.132 0 0 1 .236 0z" class="cls-1" transform="translate(-74.263 -120.604)"/>
            <path id="Path_5333" d="M87.311 153.743l.311.933.984.007a.133.133 0 0 1 .078.239l-.791.585.3.938a.133.133 0 0 1-.2.148l-.8-.572-.8.572a.133.133 0 0 1-.2-.148l.3-.938-.791-.585a.133.133 0 0 1 .078-.239l.984-.007.311-.933a.132.132 0 0 1 .236 0z" class="cls-1" transform="translate(-74.263 -146.376)"/>
            <path id="Path_5334" d="M87.311 184.4l.311.933.984.007a.133.133 0 0 1 .078.239l-.791.585.3.938a.133.133 0 0 1-.2.148l-.8-.572-.8.572a.133.133 0 0 1-.2-.148l.3-.938-.791-.585a.133.133 0 0 1 .078-.239l.984-.007.311-.933a.132.132 0 0 1 .236 0z" class="cls-1" transform="translate(-74.263 -172.147)"/>
            <path id="Path_5335" d="M87.311 215.052l.311.933.984.007a.133.133 0 0 1 .078.239l-.791.585.3.938a.133.133 0 0 1-.2.148l-.8-.572-.8.572a.133.133 0 0 1-.2-.148l.3-.938-.791-.585a.133.133 0 0 1 .078-.239l.984-.007.311-.933a.132.132 0 0 1 .236 0z" class="cls-1" transform="translate(-74.263 -197.919)"/>
            <path id="Path_5336" d="M111.1 108.059l.311.933.984.007a.133.133 0 0 1 .078.239l-.791.585.3.938a.133.133 0 0 1-.2.148l-.8-.572-.8.572a.133.133 0 0 1-.2-.148l.3-.938-.791-.585a.133.133 0 0 1 .078-.239l.984-.007.311-.933a.133.133 0 0 1 .236 0z" class="cls-1" transform="translate(-94.265 -107.969)"/>
            <path id="Path_5337" d="M111.1 138.714l.311.933.984.007a.133.133 0 0 1 .078.239l-.791.585.3.938a.133.133 0 0 1-.2.148l-.8-.572-.8.572a.133.133 0 0 1-.2-.148l.3-.938-.791-.585a.133.133 0 0 1 .078-.239l.984-.007.311-.933a.133.133 0 0 1 .236 0z" class="cls-1" transform="translate(-94.265 -133.741)"/>
            <path id="Path_5338" d="M111.1 169.368l.311.933.984.007a.133.133 0 0 1 .078.239l-.791.585.3.938a.133.133 0 0 1-.2.148l-.8-.572-.8.572a.133.133 0 0 1-.2-.148l.3-.938-.791-.585a.133.133 0 0 1 .078-.239l.984-.007.311-.933a.133.133 0 0 1 .236 0z" class="cls-1" transform="translate(-94.265 -159.512)"/>
            <path id="Path_5339" d="M111.1 200.022l.311.933.984.008a.133.133 0 0 1 .078.239l-.791.585.3.938a.133.133 0 0 1-.2.148l-.8-.572-.8.572a.133.133 0 0 1-.2-.148l.3-.938-.791-.585a.133.133 0 0 1 .078-.239l.984-.007.311-.933a.133.133 0 0 1 .236-.001z" class="cls-1" transform="translate(-94.265 -185.283)"/>
            <path id="Path_5340" d="M111.1 230.676l.311.933.984.007a.133.133 0 0 1 .078.239l-.791.585.3.938a.133.133 0 0 1-.2.148l-.8-.572-.8.572a.133.133 0 0 1-.2-.148l.3-.938-.791-.585a.133.133 0 0 1 .078-.239l.984-.007.311-.933a.132.132 0 0 1 .236 0z" class="cls-1" transform="translate(-94.265 -211.054)"/>
            <path id="Path_5341" d="M134.9 123.089l.311.933.984.007a.133.133 0 0 1 .078.239l-.791.585.3.938a.133.133 0 0 1-.2.148l-.8-.572-.8.572a.133.133 0 0 1-.2-.148l.3-.938-.791-.585a.133.133 0 0 1 .078-.239l.984-.007.311-.933a.132.132 0 0 1 .236 0z" class="cls-1" transform="translate(-114.269 -120.604)"/>
            <path id="Path_5342" d="M134.9 153.743l.311.933.984.007a.133.133 0 0 1 .078.239l-.791.585.3.938a.133.133 0 0 1-.2.148l-.8-.572-.8.572a.133.133 0 0 1-.2-.148l.3-.938-.791-.585a.133.133 0 0 1 .078-.239l.984-.007.311-.933a.132.132 0 0 1 .236 0z" class="cls-1" transform="translate(-114.269 -146.376)"/>
            <path id="Path_5343" d="M134.9 184.4l.311.933.984.007a.133.133 0 0 1 .078.239l-.791.585.3.938a.133.133 0 0 1-.2.148l-.8-.572-.8.572a.133.133 0 0 1-.2-.148l.3-.938-.791-.585a.133.133 0 0 1 .078-.239l.984-.007.311-.933a.132.132 0 0 1 .236 0z" class="cls-1" transform="translate(-114.269 -172.147)"/>
            <path id="Path_5344" d="M134.9 215.052l.311.933.984.007a.133.133 0 0 1 .078.239l-.791.585.3.938a.133.133 0 0 1-.2.148l-.8-.572-.8.572a.133.133 0 0 1-.2-.148l.3-.938-.791-.585a.133.133 0 0 1 .078-.239l.984-.007.311-.933a.132.132 0 0 1 .236 0z" class="cls-1" transform="translate(-114.269 -197.919)"/>
            <path id="Path_5345" d="M158.691 108.059l.311.933.984.007a.133.133 0 0 1 .078.239l-.791.585.3.938a.133.133 0 0 1-.2.148l-.8-.572-.8.572a.133.133 0 0 1-.2-.148l.3-.938-.791-.585a.133.133 0 0 1 .078-.239l.984-.007.311-.933a.132.132 0 0 1 .236 0z" class="cls-1" transform="translate(-134.273 -107.969)"/>
            <path id="Path_5346" d="M158.691 138.714l.311.933.984.007a.133.133 0 0 1 .078.239l-.791.585.3.938a.133.133 0 0 1-.2.148l-.8-.572-.8.572a.133.133 0 0 1-.2-.148l.3-.938-.791-.585a.133.133 0 0 1 .078-.239l.984-.007.311-.933a.132.132 0 0 1 .236 0z" class="cls-1" transform="translate(-134.273 -133.741)"/>
            <path id="Path_5347" d="M158.691 169.368l.311.933.984.007a.133.133 0 0 1 .078.239l-.791.585.3.938a.133.133 0 0 1-.2.148l-.8-.572-.8.572a.133.133 0 0 1-.2-.148l.3-.938-.791-.585a.133.133 0 0 1 .078-.239l.984-.007.311-.933a.132.132 0 0 1 .236 0z" class="cls-1" transform="translate(-134.273 -159.512)"/>
            <path id="Path_5348" d="M158.691 200.022l.311.933.984.008a.133.133 0 0 1 .078.239l-.791.585.3.938a.133.133 0 0 1-.2.148l-.8-.572-.8.572a.133.133 0 0 1-.2-.148l.3-.938-.791-.585a.133.133 0 0 1 .078-.239l.984-.007.311-.933a.132.132 0 0 1 .236-.001z" class="cls-1" transform="translate(-134.273 -185.283)"/>
            <path id="Path_5349" d="M158.691 230.676l.311.933.984.007a.133.133 0 0 1 .078.239l-.791.585.3.938a.133.133 0 0 1-.2.148l-.8-.572-.8.572a.133.133 0 0 1-.2-.148l.3-.938-.791-.585a.133.133 0 0 1 .078-.239l.984-.007.311-.933a.132.132 0 0 1 .236 0z" class="cls-1" transform="translate(-134.273 -211.054)"/>
            <path id="Path_5350" d="M182.484 123.089l.311.933.984.007a.133.133 0 0 1 .078.239l-.791.585.3.938a.133.133 0 0 1-.2.148l-.8-.572-.8.572a.133.133 0 0 1-.2-.148l.3-.938-.791-.585a.133.133 0 0 1 .078-.239l.984-.007.311-.933a.132.132 0 0 1 .236 0z" class="cls-1" transform="translate(-154.276 -120.604)"/>
            <path id="Path_5351" d="M182.484 153.743l.311.933.984.007a.133.133 0 0 1 .078.239l-.791.585.3.938a.133.133 0 0 1-.2.148l-.8-.572-.8.572a.133.133 0 0 1-.2-.148l.3-.938-.791-.585a.133.133 0 0 1 .078-.239l.984-.007.311-.933a.132.132 0 0 1 .236 0z" class="cls-1" transform="translate(-154.276 -146.376)"/>
            <path id="Path_5352" d="M182.484 184.4l.311.933.984.007a.133.133 0 0 1 .078.239l-.791.585.3.938a.133.133 0 0 1-.2.148l-.8-.572-.8.572a.133.133 0 0 1-.2-.148l.3-.938-.791-.585a.133.133 0 0 1 .078-.239l.984-.007.311-.933a.132.132 0 0 1 .236 0z" class="cls-1" transform="translate(-154.276 -172.147)"/>
            <path id="Path_5353" d="M182.484 215.052l.311.933.984.007a.133.133 0 0 1 .078.239l-.791.585.3.938a.133.133 0 0 1-.2.148l-.8-.572-.8.572a.133.133 0 0 1-.2-.148l.3-.938-.791-.585a.133.133 0 0 1 .078-.239l.984-.007.311-.933a.132.132 0 0 1 .236 0z" class="cls-1" transform="translate(-154.276 -197.919)"/>
            <path id="Path_5354" d="M206.278 108.059l.311.933.984.007a.133.133 0 0 1 .078.239l-.792.585.3.938a.133.133 0 0 1-.2.148l-.8-.572-.8.572a.133.133 0 0 1-.2-.148l.3-.938-.791-.585a.133.133 0 0 1 .078-.239l.984-.007.311-.933a.132.132 0 0 1 .237 0z" class="cls-1" transform="translate(-174.28 -107.969)"/>
            <path id="Path_5355" d="M206.278 138.714l.311.933.984.007a.133.133 0 0 1 .078.239l-.792.585.3.938a.133.133 0 0 1-.2.148l-.8-.572-.8.572a.133.133 0 0 1-.2-.148l.3-.938-.791-.585a.133.133 0 0 1 .078-.239l.984-.007.311-.933a.132.132 0 0 1 .237 0z" class="cls-1" transform="translate(-174.28 -133.741)"/>
            <path id="Path_5356" d="M206.278 169.368l.311.933.984.007a.133.133 0 0 1 .078.239l-.792.585.3.938a.133.133 0 0 1-.2.148l-.8-.572-.8.572a.133.133 0 0 1-.2-.148l.3-.938-.791-.585a.133.133 0 0 1 .078-.239l.984-.007.311-.933a.132.132 0 0 1 .237 0z" class="cls-1" transform="translate(-174.28 -159.512)"/>
            <path id="Path_5357" d="M206.278 200.022l.311.933.984.008a.133.133 0 0 1 .078.239l-.792.585.3.938a.133.133 0 0 1-.2.148l-.8-.572-.8.572a.133.133 0 0 1-.2-.148l.3-.938-.791-.585a.133.133 0 0 1 .078-.239l.984-.007.311-.933a.132.132 0 0 1 .237-.001z" class="cls-1" transform="translate(-174.28 -185.283)"/>
            <path id="Path_5358" d="M206.278 230.676l.311.933.984.007a.133.133 0 0 1 .078.239l-.792.585.3.938a.133.133 0 0 1-.2.148l-.8-.572-.8.572a.133.133 0 0 1-.2-.148l.3-.938-.791-.585a.133.133 0 0 1 .078-.239l.984-.007.311-.933a.132.132 0 0 1 .237 0z" class="cls-1" transform="translate(-174.28 -211.054)"/>
        </g>
    </g>
</svg>
