<svg xmlns="http://www.w3.org/2000/svg" width="249" height="121" viewBox="0 0 249 121">
    <defs>
        <clipPath id="clip-path">
            <rect id="Rectangle_3969" data-name="Rectangle 3969" class="cls-1" width="249" height="121" rx="10" transform="translate(419 2306)"/>
        </clipPath>
        <style>
            .cls-1{fill:#fff}
        </style>
    </defs>
    <g id="Mask_Group_50" data-name="Mask Group 50" transform="translate(-419 -2306)" style="clip-path:url(#clip-path)">
        <g id="ThinkBusiness_Logo_2_BIO_Blue" transform="translate(417.395 2338.222)">
            <g id="Group_18596" data-name="Group 18596">
                <path id="Path_15738" data-name="Path 15738" class="cls-1" d="M97.254 27.514h-1.643c-.382-.153-.306-1.872-.8-1.872h-2.869v12.075c0 .5 1.49.42 1.6.8h.038v1.643h-6.033v-1.641h.038c.153-.382 1.6-.306 1.6-.8V25.641h-2.822c-.5 0-.42 1.681-.8 1.872h-1.646v-4.2h13.375v4.2z"/>
                <path id="Path_15739" data-name="Path 15739" class="cls-1" d="M112.272 38.519v1.643h-4.2v-7.413a1.667 1.667 0 0 0-1.758-1.834 5.627 5.627 0 0 0-3.936 2.14v4.662c0 .5 1.49.42 1.6.8h.038v1.643h-5.845v-1.641h.038c.153-.382 1.6-.306 1.6-.8V25.488c0-.5-1.49-.42-1.6-.8h-.038v-1.645h4.2V30.3A7.477 7.477 0 0 1 107 28.469a3.431 3.431 0 0 1 3.669 3.669v5.579c-.038.5 1.452.42 1.6.8z"/>
                <path id="Path_15740" data-name="Path 15740" class="cls-1" d="M119.3 38.519v1.643h-5.847v-1.643h.038c.153-.382 1.6-.306 1.6-.8v-6.537c0-.5-1.49-.42-1.6-.8h-.038v-1.645h4.2v8.98c0 .5 1.49.42 1.643.8zm-4.509-12.649a1.6 1.6 0 1 1 1.6 1.6 1.524 1.524 0 0 1-1.597-1.599z"/>
                <path id="Path_15741" data-name="Path 15741" class="cls-1" d="M134.665 38.519v1.643h-4.2v-7.413a1.667 1.667 0 0 0-1.758-1.834 5.627 5.627 0 0 0-3.936 2.14v4.662c0 .5 1.49.42 1.6.8h.038v1.643h-5.847v-1.641h.038c.153-.382 1.6-.306 1.6-.8v-6.537c0-.5-1.49-.42-1.6-.8h-.038v-1.645h4.2v1.6a7.477 7.477 0 0 1 4.624-1.834 3.431 3.431 0 0 1 3.669 3.669v5.579c-.038.459 1.452.382 1.6.764z"/>
                <path id="Path_15742" data-name="Path 15742" class="cls-1" d="M148.727 38.519v1.643h-2.79l-5.006-4.738h-1.146v2.293c0 .5 1.49.42 1.6.8h.038v1.643h-5.847v-1.641h.038c.153-.382 1.6-.306 1.6-.8V25.488c0-.5-1.49-.42-1.6-.8h-.038v-1.645h4.2v10.2h1.6l2.331-2.14c.5-.459-.955-.344-1.07-.726h-.038v-1.64h5.923v1.643h-.022c-.153.382-1.108.229-1.72.764l-3.592 3.21 3.592 3.4c.688.535 1.72.42 1.949.764z"/>
                <path id="Path_15743" data-name="Path 15743" class="cls-1" d="M164.166 35.309c0 2.828-2.178 4.815-5.235 4.815H154.5v.038h-4.4v-1.643h.038c.153-.382 1.6-.306 1.6-.8V25.756c0-.5-1.49-.42-1.6-.8h-.038V23.31h8.1c2.9 0 5.006 1.872 5.006 4.509a3.751 3.751 0 0 1-1.834 3.21 4.559 4.559 0 0 1 2.794 4.28zm-9.666-9.668v4.586h3.363a2.3 2.3 0 1 0 0-4.586zm6.764 9.592a2.568 2.568 0 0 0-2.675-2.675H154.5v5.273h4.089a2.529 2.529 0 0 0 2.673-2.598z"/>
                <path id="Path_15744" data-name="Path 15744" class="cls-1" d="M179.222 38.519v1.643h-4.2v-1.6a7.257 7.257 0 0 1-4.509 1.834 3.311 3.311 0 0 1-3.554-3.554v-5.66c0-.5-1.49-.42-1.6-.8h-.038v-1.645h4.2v7.528a1.548 1.548 0 0 0 1.643 1.72 5.477 5.477 0 0 0 3.821-2.14v-4.663c0-.5-1.49-.42-1.6-.8h-.038v-1.645h4.2v8.98c.038.5 1.49.42 1.681.8z"/>
                <path id="Path_15745" data-name="Path 15745" class="cls-1" d="m180.254 38.558.611-2.675 1.529.382v.035c.344.229-.382 1.758 3.134 1.758 1.758 0 2.866-.42 2.866-1.146 0-1.72-7.681-1.032-7.681-4.853 0-2.216 1.872-3.477 4.815-3.477a7.651 7.651 0 0 1 4.853 1.681l-.611 2.675-1.49-.382v-.076c-.382-.229.344-1.567-2.751-1.567-1.337 0-2.178.306-2.178.841 0 1.567 7.681.879 7.681 4.853 0 2.407-2.14 3.821-5.5 3.821a7.623 7.623 0 0 1-5.278-1.87z"/>
                <path id="Path_15746" data-name="Path 15746" class="cls-1" d="M198.291 38.519v1.643h-5.847v-1.643h.038c.153-.382 1.6-.306 1.6-.8v-6.537c0-.5-1.49-.42-1.6-.8h-.038v-1.645h4.2v8.98c0 .5 1.452.42 1.643.8zm-4.547-12.649a1.6 1.6 0 1 1 1.6 1.6 1.524 1.524 0 0 1-1.601-1.599z"/>
                <path id="Path_15747" data-name="Path 15747" class="cls-1" d="M213.652 38.519v1.643h-4.2v-7.413a1.667 1.667 0 0 0-1.758-1.834 5.627 5.627 0 0 0-3.936 2.14v4.662c0 .5 1.49.42 1.6.8h.038v1.643h-5.923v-1.641h.038c.153-.382 1.6-.306 1.6-.8v-6.537c0-.5-1.49-.42-1.6-.8h-.038v-1.645h4.2v1.6a7.477 7.477 0 0 1 4.624-1.834 3.431 3.431 0 0 1 3.669 3.669v5.579c.038.459 1.49.382 1.681.764z"/>
                <path id="Path_15748" data-name="Path 15748" class="cls-1" d="M226.454 35.462h-8.866a3.255 3.255 0 0 0 3.248 2.522 4.448 4.448 0 0 0 3.592-1.872l2.025 1.6a7.326 7.326 0 0 1-5.579 2.675 5.781 5.781 0 0 1-6.076-5.923 5.886 5.886 0 1 1 11.77 0c-.038.387-.076.693-.114.998zm-8.827-2.178h6a2.98 2.98 0 0 0-2.981-2.369 2.936 2.936 0 0 0-3.019 2.369z"/>
                <path id="Path_15749" data-name="Path 15749" class="cls-1" d="m227.83 38.558.611-2.675 1.529.382v.035c.344.229-.382 1.758 3.134 1.758 1.758 0 2.866-.42 2.866-1.146 0-1.72-7.681-1.032-7.681-4.853 0-2.216 1.872-3.477 4.815-3.477a7.651 7.651 0 0 1 4.853 1.681l-.611 2.675-1.49-.382v-.076c-.382-.229.344-1.567-2.751-1.567-1.337 0-2.178.306-2.178.841 0 1.567 7.681.879 7.681 4.853 0 2.407-2.14 3.821-5.5 3.821-2.145.002-4.361-.8-5.278-1.87z"/>
                <path id="Path_15750" data-name="Path 15750" class="cls-1" d="m239.829 38.558.611-2.675 1.529.382v.035c.344.229-.382 1.758 3.134 1.758 1.758 0 2.866-.42 2.866-1.146 0-1.72-7.681-1.032-7.681-4.853 0-2.216 1.872-3.477 4.815-3.477a7.651 7.651 0 0 1 4.853 1.681l-.611 2.675-1.49-.382v-.076c-.382-.229.344-1.567-2.751-1.567-1.337 0-2.178.306-2.178.841 0 1.567 7.681.879 7.681 4.853 0 2.407-2.14 3.821-5.5 3.821-2.145.002-4.361-.8-5.278-1.87z"/>
            </g>
            <g id="Group_18597" data-name="Group 18597">
                <path id="Line_528" data-name="Line 528" transform="translate(68.632 2.025)" style="fill:none;stroke:#fff;stroke-width:1.259px" d="M0 0v52.506"/>
            </g>
            <g id="Group_18598" data-name="Group 18598">
                <path id="Path_15751" data-name="Path 15751" class="cls-1" d="M53.614 21.782a3.162 3.162 0 0 1 1.72.535v-1.49a5.193 5.193 0 0 0-2.025-.382 2.976 2.976 0 0 0-3.325 3.248V32.1h2.369v-6.42H54v-1.338h-1.647v-1.07c-.038-.879.459-1.529 1.261-1.49"/>
                <path id="Path_15752" data-name="Path 15752" class="cls-1" d="M44.442 32.329c2.216 0 4.318-1.3 4.28-4.815 0-3.516-1.872-4.891-4.28-4.891-2.293 0-4.318 1.337-4.318 4.891s2.064 4.815 4.318 4.815M44.4 24c1.261 0 1.8 1.146 1.834 3.516s-.5 3.439-1.834 3.439-1.834-1.07-1.834-3.439c0-2.446.5-3.516 1.834-3.516"/>
                <path id="Path_15753" data-name="Path 15753" class="cls-1" d="M16.661 31.45c.038.229.115.5.153.65h2.216a7.5 7.5 0 0 1-.191-1.911V25.6c0-2.675-1.987-2.942-3.745-2.942-2.981 0-3.821 1.643-3.821 2.866h2.14a1.584 1.584 0 0 1 1.681-1.6c.726 0 1.376.344 1.376 1.49v.573c-.382.115-2.025.5-2.751.688-1.72.42-2.9 1.261-2.9 3.019 0 1.72 1.185 2.637 2.942 2.637a5.139 5.139 0 0 0 2.9-.879m-3.4-1.987c0-1.07 1.032-1.6 2.064-1.911.42-.115.879-.229 1.185-.306v2.866a3.161 3.161 0 0 1-1.872.688 1.22 1.22 0 0 1-1.376-1.337"/>
                <path id="Path_15754" data-name="Path 15754" class="cls-1" d="M9.936 28.775a3.018 3.018 0 0 0-3.057-2.942c1.223-.267 2.446-.879 2.446-2.6 0-1.8-1.452-2.522-3.019-2.522H1.6V32.1h4.17c2.255 0 4.165-1.07 4.165-3.325m-5.77-6.8h.65c1.07 0 1.987.344 1.987 1.6s-.764 1.758-1.987 1.758h-.65zm.841 8.825h-.841v-4.2h.841c1.3 0 2.216.611 2.216 2.025A1.937 1.937 0 0 1 5.006 30.8"/>
                <path id="Path_15755" data-name="Path 15755" class="cls-1" d="M25.832 26.253V32.1h2.331v-5.962c0-1.49-.267-3.477-2.9-3.477a5.033 5.033 0 0 0-2.637.917v-.688h-2.335v9.171h2.331V25.03a3.026 3.026 0 0 1 1.8-.8c1.146 0 1.414.688 1.414 2.025"/>
                <path id="Path_15756" data-name="Path 15756" class="cls-1" d="M29.616 20.674v11.387h2.369V20.674z"/>
                <path id="Path_15757" data-name="Path 15757" class="cls-1" d="m34.392 26.482 2.981-3.592h-2.025l-3.363 4.051 2.6 5.121h2.9z"/>
                <path id="Path_15758" data-name="Path 15758" class="cls-1" d="M15.973 35.348c-2.369 0-4.318 1.529-4.318 4.738 0 3.707 1.949 4.968 4.318 4.968a3.866 3.866 0 0 0 4.165-3.363h-2.445c-.153 1.185-.573 2.025-1.72 2.025-1.414 0-1.834-1.223-1.834-3.21h6.114v-.382c0-3.248-1.949-4.777-4.28-4.777m-1.8 3.9c.115-1.07.42-2.56 1.8-2.56 1.337 0 1.72 1.414 1.758 2.56z"/>
                <path id="Path_15759" data-name="Path 15759" class="cls-1" d="M33.169 38.29c0-2.675-1.987-2.942-3.745-2.942-2.981 0-3.821 1.643-3.821 2.866h2.14a1.584 1.584 0 0 1 1.681-1.6c.726 0 1.376.344 1.376 1.49v.573c-.382.115-2.025.5-2.751.688-1.72.42-2.9 1.261-2.9 3.019 0 1.72 1.185 2.637 2.942 2.637a4.9 4.9 0 0 0 2.866-.917c.038.229.115.5.153.65h2.216a7.5 7.5 0 0 1-.191-1.911V38.29zm-2.331 4.547a3.161 3.161 0 0 1-1.872.688 1.22 1.22 0 0 1-1.376-1.337c0-1.07 1.032-1.6 2.064-1.911.42-.115.879-.229 1.185-.306z"/>
                <path id="Rectangle_3970" data-name="Rectangle 3970" class="cls-1" transform="translate(21.552 33.361)" d="M0 0h2.331v11.388H0z"/>
                <path id="Path_15760" data-name="Path 15760" class="cls-1" d="M39.7 35.348a5.033 5.033 0 0 0-2.637.917v-.688h-2.327v9.171h2.331v-7.031a3.026 3.026 0 0 1 1.8-.8c1.146 0 1.414.688 1.414 2.025v5.847h2.331v-5.964c0-1.49-.267-3.477-2.9-3.477"/>
                <path id="Path_15761" data-name="Path 15761" class="cls-1" d="M49.983 36.227a3.347 3.347 0 0 0-2.331-.841c-1.414 0-3.783.8-3.783 4.777 0 3.821 1.872 4.891 3.63 4.891a3.9 3.9 0 0 0 2.484-.955v.688h2.369V33.361h-2.369zm0 6.382a2.369 2.369 0 0 1-1.72.994c-1.032 0-1.949-.573-1.911-3.439 0-2.751.955-3.363 1.911-3.363a2.154 2.154 0 0 1 1.72.994z"/>
                <path id="Rectangle_3971" data-name="Rectangle 3971" class="cls-1" transform="translate(1.605 33.361)" d="M0 0h2.522v11.388H0z"/>
                <path id="Path_15762" data-name="Path 15762" class="cls-1" d="M8.254 36.8v-1.185H5.923v9.171h2.331v-5.235c0-2.255 1.949-2.407 3.1-2.369v-1.8a2.9 2.9 0 0 0-3.1 1.414"/>
                <path id="Path_15763" data-name="Path 15763" class="cls-1" d="M36.112 2.79c0 1.72-7.528 1.911-7.528 3.783h-.153c0-1.873-7.531-2.026-7.531-3.783h-.15v1.8c0 2.14 7.566 1.949 7.719 4.012h.153c.115-2.067 7.678-1.876 7.678-4.016V2.79z"/>
                <path id="Path_15764" data-name="Path 15764" class="cls-1" d="M36.112 6.878c0 1.72-7.528 1.911-7.528 3.783h-.153c0-1.872-7.528-2.025-7.528-3.783h-.153v1.8c0 2.14 7.566 1.949 7.719 4.012h.153c.115-2.064 7.681-1.872 7.681-4.012v-1.8z"/>
                <path id="Path_15765" data-name="Path 15765" class="cls-1" d="M36.112 10.967c0 1.72-7.528 1.911-7.528 3.783h-.153c0-1.872-7.528-2.025-7.528-3.783h-.153v1.8c0 2.14 7.566 1.949 7.719 4.012h.153c.115-2.064 7.681-1.872 7.681-4.012v-1.8z"/>
            </g>
        </g>
    </g>
</svg>
