<svg xmlns="http://www.w3.org/2000/svg" width="249" height="121" viewBox="0 0 249 121">
    <defs>
        <clipPath id="clip-path">
            <rect id="Rectangle_3965" data-name="Rectangle 3965" class="cls-1" width="249" height="121" rx="10" transform="translate(698 2306)"/>
        </clipPath>
        <style>
            .cls-1{fill:#fff}
        </style>
    </defs>
    <g id="Mask_Group_51" data-name="Mask Group 51" transform="translate(-698 -2306)" style="clip-path:url(#clip-path)">
        <g id="masthead-large" transform="translate(698 2356.54)">
            <path id="Path_15766" data-name="Path 15766" class="cls-1" d="M17.269.435V5.55h-.51a8 8 0 0 0-1.007-2.543 3.863 3.863 0 0 0-1.517-1.233 4.934 4.934 0 0 0-1.886-.251h-1.432V16.1a5.848 5.848 0 0 0 .163 1.812 1.449 1.449 0 0 0 .638.634 2.619 2.619 0 0 0 1.3.272h.638v.516H3.587v-.516h.638a2.7 2.7 0 0 0 1.347-.293 1.339 1.339 0 0 0 .581-.669 5.651 5.651 0 0 0 .156-1.756V1.522H4.92a4.091 4.091 0 0 0-2.82.809A5.31 5.31 0 0 0 .539 5.55H0V.435z" transform="translate(0 -.003)"/>
            <path id="Path_15767" data-name="Path 15767" class="cls-1" d="M26.258 10.247V16.1a5.848 5.848 0 0 0 .163 1.812 1.447 1.447 0 0 0 .638.634 2.584 2.584 0 0 0 1.283.272h.638v.516H18.928v-.516h.638a2.7 2.7 0 0 0 1.347-.293 1.275 1.275 0 0 0 .567-.669 5.648 5.648 0 0 0 .156-1.756V3.668a6.113 6.113 0 0 0-.156-1.812 1.408 1.408 0 0 0-.631-.634 2.585 2.585 0 0 0-1.283-.271h-.638V.435H28.98v.516h-.638A2.693 2.693 0 0 0 27 1.243a1.34 1.34 0 0 0-.581.669 5.651 5.651 0 0 0-.156 1.756V9.02h6.787V3.668a6.115 6.115 0 0 0-.156-1.812 1.4 1.4 0 0 0-.638-.634 2.627 2.627 0 0 0-1.29-.272h-.624V.435H40.38v.516h-.624a2.646 2.646 0 0 0-1.347.293 1.339 1.339 0 0 0-.581.669 5.641 5.641 0 0 0-.156 1.756V16.1a6.1 6.1 0 0 0 .156 1.812 1.4 1.4 0 0 0 .638.634 2.627 2.627 0 0 0 1.29.272h.624v.516H30.342v-.516h.624a2.65 2.65 0 0 0 1.347-.293 1.338 1.338 0 0 0 .581-.669 5.651 5.651 0 0 0 .156-1.756v-5.853z" transform="translate(0 -.003)"/>
            <path id="Path_15768" data-name="Path 15768" class="cls-1" d="M48.816 1.522v7.693h.384a3.059 3.059 0 0 0 2.65-1.129 6.862 6.862 0 0 0 1.05-3.33h.539v9.895H52.9A7.307 7.307 0 0 0 52.183 12a3.054 3.054 0 0 0-1.269-1.387 4.9 4.9 0 0 0-2.1-.355v5.324a7.55 7.55 0 0 0 .135 1.909 1.15 1.15 0 0 0 .5.571 2.4 2.4 0 0 0 1.191.223h1.149a6.986 6.986 0 0 0 4.317-1.227 6.818 6.818 0 0 0 2.332-3.735h.525l-.863 6.01H41.486v-.516h.638a2.7 2.7 0 0 0 1.347-.293 1.275 1.275 0 0 0 .567-.669 5.658 5.658 0 0 0 .156-1.756V3.668a9.732 9.732 0 0 0-.071-1.575 1.334 1.334 0 0 0-.525-.753 2.471 2.471 0 0 0-1.474-.39h-.638V.435h16.092v5.589h-.539a6.75 6.75 0 0 0-1.155-2.941 4.3 4.3 0 0 0-2.105-1.31 11.593 11.593 0 0 0-2.979-.251h-1.984z" transform="translate(0 -.003)"/>
            <path id="Path_15769" data-name="Path 15769" class="cls-1" d="M78.165 18.817v.516H68.113v-.516h.638a2.7 2.7 0 0 0 1.347-.293 1.275 1.275 0 0 0 .567-.669 5.648 5.648 0 0 0 .156-1.756V3.668a6.112 6.112 0 0 0-.156-1.812 1.408 1.408 0 0 0-.631-.634 2.586 2.586 0 0 0-1.283-.271h-.638V.435h10.052v.516h-.638a2.693 2.693 0 0 0-1.347.293 1.34 1.34 0 0 0-.581.669 5.651 5.651 0 0 0-.156 1.756V16.1a5.858 5.858 0 0 0 .163 1.812 1.448 1.448 0 0 0 .638.634 2.584 2.584 0 0 0 1.283.272h.638z" transform="translate(0 -.003)"/>
            <path id="Path_15770" data-name="Path 15770" class="cls-1" d="M86.545 10.72v5.3a5.751 5.751 0 0 0 .191 1.93 1.386 1.386 0 0 0 .674.634 4.608 4.608 0 0 0 1.8.237v.516h-9.84v-.516a4.486 4.486 0 0 0 1.808-.244 1.435 1.435 0 0 0 .666-.634 5.673 5.673 0 0 0 .192-1.923V3.752a5.745 5.745 0 0 0-.192-1.93 1.39 1.39 0 0 0-.673-.634 4.609 4.609 0 0 0-1.8-.237V.435H88.3a19.825 19.825 0 0 1 5.1.474 5.146 5.146 0 0 1 2.637 1.749 4.64 4.64 0 0 1 1.021 2.989A4.431 4.431 0 0 1 95.534 9.1a6.375 6.375 0 0 1-2.734 1.3l4.622 6.4a9.7 9.7 0 0 0 1.29 1.547 2.427 2.427 0 0 0 1.347.474v.516H94l-6.2-8.613h-1.255zm0-9.268v8.279h.808a9.182 9.182 0 0 0 2.947-.355 2.925 2.925 0 0 0 1.54-1.283 4.63 4.63 0 0 0 .56-2.418 4.36 4.36 0 0 0-1.028-3.192 4.53 4.53 0 0 0-3.311-1.031h-1.516z" transform="translate(0 -.003)"/>
            <path id="Path_15771" data-name="Path 15771" class="cls-1" d="M110.435 18.817v.516h-10.052v-.516h.638a2.7 2.7 0 0 0 1.347-.293 1.275 1.275 0 0 0 .567-.669 5.657 5.657 0 0 0 .156-1.756V3.668a6.123 6.123 0 0 0-.156-1.812 1.41 1.41 0 0 0-.631-.634 2.586 2.586 0 0 0-1.284-.271h-.638V.435h10.052v.516h-.634a2.693 2.693 0 0 0-1.347.293 1.341 1.341 0 0 0-.581.669 5.651 5.651 0 0 0-.156 1.756V16.1a5.848 5.848 0 0 0 .163 1.812 1.449 1.449 0 0 0 .638.634 2.584 2.584 0 0 0 1.283.272h.638z" transform="translate(0 -.003)"/>
            <path id="Path_15772" data-name="Path 15772" class="cls-1" d="m124.741 0 .156 6.3h-.581a6.415 6.415 0 0 0-2.02-3.811 5.124 5.124 0 0 0-3.481-1.443 3.3 3.3 0 0 0-2.29.76 2.3 2.3 0 0 0-.843 1.749 2.1 2.1 0 0 0 .3 1.115 4.782 4.782 0 0 0 1.318 1.3 29.9 29.9 0 0 0 3.074 1.63 13.678 13.678 0 0 1 4.551 3.08 5.153 5.153 0 0 1 1.163 3.317 5.326 5.326 0 0 1-1.879 4.077 6.822 6.822 0 0 1-4.771 1.707 7.836 7.836 0 0 1-1.716-.181 13.126 13.126 0 0 1-2.027-.683 3.113 3.113 0 0 0-1.12-.279 1.4 1.4 0 0 0-.78.279 1.955 1.955 0 0 0-.666.85h-.529v-7.14h.525a8.137 8.137 0 0 0 2.4 4.592 5.675 5.675 0 0 0 3.835 1.582 3.636 3.636 0 0 0 2.531-.85 2.593 2.593 0 0 0 .943-1.979 2.558 2.558 0 0 0-.362-1.3 4.146 4.146 0 0 0-1.1-1.192 16.711 16.711 0 0 0-2.609-1.47A22.637 22.637 0 0 1 115 9.853a6.663 6.663 0 0 1-1.765-1.993 4.88 4.88 0 0 1-.617-2.425 5.089 5.089 0 0 1 1.687-3.846A5.961 5.961 0 0 1 118.559 0a7.349 7.349 0 0 1 1.815.223 9.183 9.183 0 0 1 1.626.62 3.869 3.869 0 0 0 1.339.453.765.765 0 0 0 .582-.223 2.555 2.555 0 0 0 .4-1.073h.425z"/>
            <path id="Path_15773" data-name="Path 15773" class="cls-1" d="M135.19 10.247V16.1a5.865 5.865 0 0 0 .163 1.812 1.452 1.452 0 0 0 .638.634 2.586 2.586 0 0 0 1.284.272h.638v.516H127.86v-.516h.638a2.7 2.7 0 0 0 1.347-.293 1.275 1.275 0 0 0 .567-.669 5.649 5.649 0 0 0 .156-1.756V3.668a6.113 6.113 0 0 0-.156-1.812 1.411 1.411 0 0 0-.631-.634A2.586 2.586 0 0 0 128.5.951h-.638V.435h10.052v.516h-.638a2.694 2.694 0 0 0-1.347.293 1.339 1.339 0 0 0-.581.669 5.641 5.641 0 0 0-.156 1.756V9.02h6.791V3.668a6.1 6.1 0 0 0-.156-1.812 1.4 1.4 0 0 0-.638-.634A2.627 2.627 0 0 0 139.9.951h-.624V.435h10.038v.516h-.624a2.648 2.648 0 0 0-1.347.293 1.344 1.344 0 0 0-.581.669 5.648 5.648 0 0 0-.156 1.756V16.1a6.11 6.11 0 0 0 .156 1.812 1.4 1.4 0 0 0 .638.634 2.629 2.629 0 0 0 1.29.272h.624v.516h-10.041v-.516h.624a2.649 2.649 0 0 0 1.347-.293 1.337 1.337 0 0 0 .581-.669 5.638 5.638 0 0 0 .156-1.756v-5.853z" transform="translate(0 -.003)"/>
            <path id="Path_15774" data-name="Path 15774" class="cls-1" d="M174.889.435V5.55h-.51a7.981 7.981 0 0 0-1.007-2.543 3.862 3.862 0 0 0-1.517-1.233 4.938 4.938 0 0 0-1.886-.251h-1.432V16.1a5.862 5.862 0 0 0 .163 1.812 1.452 1.452 0 0 0 .638.634 2.62 2.62 0 0 0 1.3.272h.638v.516h-10.069v-.516h.638a2.7 2.7 0 0 0 1.347-.293 1.339 1.339 0 0 0 .581-.669 5.648 5.648 0 0 0 .156-1.756V1.522h-1.39a4.089 4.089 0 0 0-2.821.808 5.309 5.309 0 0 0-1.56 3.219h-.539V.435z" transform="translate(0 -.003)"/>
            <path id="Path_15775" data-name="Path 15775" class="cls-1" d="M186.573 18.817v.516H176.52v-.516h.638a2.7 2.7 0 0 0 1.346-.293 1.27 1.27 0 0 0 .567-.669 5.638 5.638 0 0 0 .156-1.756V3.668a6.1 6.1 0 0 0-.156-1.812 1.406 1.406 0 0 0-.631-.634 2.583 2.583 0 0 0-1.283-.272h-.638V.435h10.053v.516h-.638a2.692 2.692 0 0 0-1.346.293 1.342 1.342 0 0 0-.582.669 5.656 5.656 0 0 0-.155 1.756V16.1a5.855 5.855 0 0 0 .163 1.812 1.446 1.446 0 0 0 .638.634 2.583 2.583 0 0 0 1.283.272h.638z" transform="translate(0 -.003)"/>
            <path id="Path_15776" data-name="Path 15776" class="cls-1" d="m201.077 12.895 5.218-12.46h7.826v.516h-.621a2.728 2.728 0 0 0-1.361.293 1.369 1.369 0 0 0-.567.655 5.568 5.568 0 0 0-.156 1.742V16.1a6.1 6.1 0 0 0 .156 1.812 1.4 1.4 0 0 0 .638.634 2.629 2.629 0 0 0 1.29.272h.624v.516h-10.041v-.516h.624a2.732 2.732 0 0 0 1.361-.293 1.362 1.362 0 0 0 .567-.669 5.649 5.649 0 0 0 .156-1.756V2.094l-7.373 17.239h-.34l-7.486-17.114v13.31a11.524 11.524 0 0 0 .071 1.714 1.986 1.986 0 0 0 .8 1.136 3.38 3.38 0 0 0 1.935.439v.516h-6.578v-.516h.2a3.052 3.052 0 0 0 1.191-.2 1.918 1.918 0 0 0 .837-.578 2.643 2.643 0 0 0 .439-1.017q.029-.153.029-1.422V3.641a5.956 5.956 0 0 0-.156-1.791 1.414 1.414 0 0 0-.638-.627 2.628 2.628 0 0 0-1.29-.272h-.61V.435h7.855z" transform="translate(0 -.003)"/>
            <path id="Path_15777" data-name="Path 15777" class="cls-1" d="M222.557 1.522v7.693h.382a3.059 3.059 0 0 0 2.651-1.129 6.862 6.862 0 0 0 1.05-3.331h.538v9.895h-.538a7.315 7.315 0 0 0-.716-2.65 3.052 3.052 0 0 0-1.269-1.387 4.9 4.9 0 0 0-2.1-.355v5.324a7.559 7.559 0 0 0 .134 1.909 1.151 1.151 0 0 0 .5.571 2.4 2.4 0 0 0 1.191.223h1.148a6.984 6.984 0 0 0 4.317-1.227 6.816 6.816 0 0 0 2.332-3.735h.525l-.865 6.007h-16.611v-.516h.638a2.7 2.7 0 0 0 1.346-.293 1.27 1.27 0 0 0 .567-.669 5.642 5.642 0 0 0 .156-1.756V3.668a9.721 9.721 0 0 0-.071-1.575 1.336 1.336 0 0 0-.524-.753 2.471 2.471 0 0 0-1.474-.39h-.638V.435h16.093v5.589h-.538a6.75 6.75 0 0 0-1.156-2.941 4.3 4.3 0 0 0-2.105-1.31 11.592 11.592 0 0 0-2.977-.251h-1.985z" transform="translate(0 -.003)"/>
            <path id="Path_15778" data-name="Path 15778" class="cls-1" d="m247.653 0 .155 6.3h-.581a6.417 6.417 0 0 0-2.02-3.811 5.126 5.126 0 0 0-3.481-1.443 3.3 3.3 0 0 0-2.29.76 2.3 2.3 0 0 0-.843 1.749 2.1 2.1 0 0 0 .3 1.115 4.787 4.787 0 0 0 1.318 1.3 29.9 29.9 0 0 0 3.075 1.63 13.686 13.686 0 0 1 4.551 3.08A5.157 5.157 0 0 1 249 13.993a5.325 5.325 0 0 1-1.879 4.077 6.822 6.822 0 0 1-4.771 1.707 7.83 7.83 0 0 1-1.716-.181 13.1 13.1 0 0 1-2.027-.683 3.114 3.114 0 0 0-1.12-.279 1.4 1.4 0 0 0-.78.279 1.956 1.956 0 0 0-.666.85h-.524v-7.136h.524a8.137 8.137 0 0 0 2.4 4.592 5.676 5.676 0 0 0 3.839 1.581 3.638 3.638 0 0 0 2.531-.85 2.593 2.593 0 0 0 .943-1.979 2.564 2.564 0 0 0-.361-1.3 4.144 4.144 0 0 0-1.1-1.192 16.681 16.681 0 0 0-2.609-1.47 22.625 22.625 0 0 1-3.771-2.16 6.657 6.657 0 0 1-1.765-1.993 4.88 4.88 0 0 1-.617-2.425 5.09 5.09 0 0 1 1.687-3.846A5.957 5.957 0 0 1 241.471 0a7.35 7.35 0 0 1 1.815.223 9.185 9.185 0 0 1 1.623.62 3.872 3.872 0 0 0 1.34.453.764.764 0 0 0 .581-.223 2.537 2.537 0 0 0 .4-1.073h.426z"/>
        </g>
    </g>
</svg>
