<svg xmlns="http://www.w3.org/2000/svg" width="249" height="121" viewBox="0 0 249 121">
    <defs>
        <clipPath id="clip-path">
            <rect id="Rectangle_3966" data-name="Rectangle 3966" class="cls-1" width="249" height="121" rx="10" transform="translate(977 2306)"/>
        </clipPath>
        <style>
            .cls-1{fill:#fff}
        </style>
    </defs>
    <g id="Mask_Group_52" data-name="Mask Group 52" transform="translate(-977 -2306)" style="clip-path:url(#clip-path)">
        <g id="the-irish-independent-seeklogo.com" transform="translate(977.023 2311.503)">
            <path id="Rectangle_3972" data-name="Rectangle 3972" transform="translate(120.481 51.668)" style="fill:none" d="M0 0h8.109v6.603H0z"/>
            <path id="path467" class="cls-1" d="M310.817 306.414c2.2 3.128 5.213 5.908 8.573 5.908 2.549 0 4.055-1.506 5.676-1.506a3.745 3.745 0 0 1 1.969.463 2.149 2.149 0 0 1 .811 1.39 3.861 3.861 0 0 1-.232 1.969c-2.2 6.6-4.981 14.713-4.981 14.713h-2.2c-.811 2.433-2.317 3.475-4.055 3.475a4.722 4.722 0 0 1-3.823-1.854 19.789 19.789 0 0 1-4.171-9.152 17.882 17.882 0 0 1 1.043-9.731l1.39 1.043a17.693 17.693 0 0 0-.348 8.457 12.276 12.276 0 0 0 3.244 6.487 3.161 3.161 0 0 0 2.2 1.274c2.549-3.939 8.457-12.859 9.036-13.786s1.158-1.854.7-2.317c-.348-.463-1.158-.232-1.738.232a8.438 8.438 0 0 1-5.445 1.738c-3.36-.116-6.372-1.854-9.847-4.518a13.658 13.658 0 0 1 2.2-4.286" transform="translate(-78.915 -267.288)"/>
            <path id="polygon469" class="cls-1" d="m311.628 313.481 5.1 12.4-3.475-11.469z" transform="translate(-78.915 -267.288)"/>
            <path id="polygon471" class="cls-1" d="m314.987 315.219 3.707 7.993-2.2-7.646z" transform="translate(-78.915 -267.288)"/>
            <path id="polygon473" class="cls-1" d="m318.115 315.8 2.317 4.981-1.158-4.866z" transform="translate(-78.915 -267.288)"/>
            <path id="polygon475" class="cls-1" d="m320.779 315.682 1.39 2.664-.348-3.012z" transform="translate(-78.915 -267.288)"/>
            <path id="polygon477" class="cls-1" d="m323.1 314.64.7 1.39v-1.854z" transform="translate(-78.915 -267.288)"/>
            <g id="Group_18637" data-name="Group 18637">
                <path id="path465" class="cls-1" d="M85.727 310.7c-.463.579-.579 1.274-.579 4.4v11.121a7.138 7.138 0 0 0 .348 3.128 2.264 2.264 0 0 0 1.622.927v.7c-1.158-.116-3.128-.116-4.17-.116s-3.012 0-4.055.116v-.811a3.879 3.879 0 0 0 1.506-.811c.463-.579.579-1.274.579-4.4v-11.009c0-1.622 0-2.549-.348-3.128-.232-.463-.579-.7-1.622-.927v-.579c1.158.116 3.128.116 4.17.116s2.9 0 4.055-.116v.7a2.243 2.243 0 0 0-1.506.7" transform="translate(-78.915 -267.288)"/>
                <path id="path479" class="cls-1" d="M92.446 315.8a25.819 25.819 0 0 1-3.823.348v.579c1.969.348 2.085 1.158 2.085 3.707v4.634c0 2.2 0 3.591-.463 4.171a2.419 2.419 0 0 1-1.622.927v.463c1.274 0 3.36-.116 4.055-.116 1.158 0 3.591 0 4.518.116v-.463h-.116c-.579-.116-1.622-.348-1.969-1.043-.232-.463-.463-.927-.463-3.128v-7.878l.348-.232a3.281 3.281 0 0 1 1.969-.579h.235l-.116.116a1.794 1.794 0 0 0-.232.927 1.52 1.52 0 0 0 1.738 1.738 2.056 2.056 0 0 0 1.969-2.317 2.418 2.418 0 0 0-2.549-2.549 3.694 3.694 0 0 0-3.36 2.2l-.116.232s.116-2.317.116-2.433c0 0-.232-.116-.232-.232a5.467 5.467 0 0 1-1.969.811" transform="translate(-78.915 -267.288)"/>
                <path id="path481" class="cls-1" d="M103.1 310.469a2.2 2.2 0 1 0 2.2-2.317c-1.622-.116-2.2 1.158-2.2 2.317m2.085 5.329a25.819 25.819 0 0 1-3.823.348v.579c1.969.348 2.085 1.158 2.085 3.707v4.634c0 2.2 0 3.591-.463 4.171a2.419 2.419 0 0 1-1.622.927v.463c1.274-.116 3.36-.116 3.939-.116 1.274 0 3.36 0 4.286.116v-.463a3.021 3.021 0 0 1-1.969-1.043c-.232-.463-.348-.927-.348-3.128v-3.475c0-3.244 0-5.676.116-7.067 0 0-.232-.116-.232-.232a9.784 9.784 0 0 1-1.969.579" transform="translate(-78.915 -267.288)"/>
                <path id="path483" class="cls-1" d="M112.6 316.493a4.118 4.118 0 0 0-1.622 3.36 4.222 4.222 0 0 0 2.317 4.171l2.085 1.274c.927.579 1.622 1.158 1.622 2.317 0 1.738-1.39 2.085-2.549 2.085-1.622 0-2.433-1.158-3.128-3.128h-.579v.348a14.1 14.1 0 0 1 .116 2.433v.811a10.194 10.194 0 0 0 3.823.579c5.213 0 5.561-3.475 5.561-4.634a4.639 4.639 0 0 0-2.433-4.17l-1.969-1.043c-.927-.579-1.738-1.158-1.738-2.317a2.484 2.484 0 0 1 .463-1.39 2.9 2.9 0 0 1 1.969-.579c1.39 0 1.969.927 2.664 2.78h.579v-2.2a6.156 6.156 0 0 1 .116-1.622.113.113 0 0 1-.116-.116 1.044 1.044 0 0 1-.579.116 3.207 3.207 0 0 1-1.043-.116 7.161 7.161 0 0 0-1.738-.116 6.8 6.8 0 0 0-3.823 1.158" transform="translate(-78.915 -267.288)"/>
                <path id="path485" class="cls-1" d="M124.651 308.152c-1.043.116-3.012.232-3.939.232v.579a2.553 2.553 0 0 1 1.738 1.043 7.283 7.283 0 0 1 .463 3.36v11.816c0 2.2 0 3.591-.463 4.286a2.419 2.419 0 0 1-1.622.927v.463c1.274-.116 3.244-.116 3.939-.116 1.274 0 2.664 0 3.707.116v-.7a1.67 1.67 0 0 1-1.274-1.043c-.116-.348-.348-.7-.348-3.36V318a4.093 4.093 0 0 1 1.969-.463c2.433 0 2.549 1.969 2.664 2.9 0 .463.116 1.969.116 2.78v3.36c0 1.158 0 2.549-.579 3.128l-.116.116c-.116.232-.348.348-.811.463v.463c1.043-.116 3.128-.116 3.707-.116 1.158 0 3.012 0 3.939.116v-.579a2.552 2.552 0 0 1-1.854-1.043c-.232-.463-.348-.927-.348-3.128v-4.4a9.9 9.9 0 0 0-.463-3.591 3.857 3.857 0 0 0-3.939-2.549 5.272 5.272 0 0 0-4.055 1.969l-.116.116v-.7c0-5.676.116-8.341.232-9.152l-.232-.116a8.5 8.5 0 0 1-2.317.579" transform="translate(-78.915 -267.288)"/>
                <path id="path487" class="cls-1" d="M143.882 309.89a2.419 2.419 0 0 1 1.622.927 7.139 7.139 0 0 1 .348 3.128v11.005c0 3.128-.116 3.823-.579 4.4a3.88 3.88 0 0 1-1.506.811v.463c1.158-.116 3.012-.116 4.055-.116s2.9 0 4.055.116v-.463a2.419 2.419 0 0 1-1.622-.927 5.206 5.206 0 0 1-.348-2.664v-11.583c0-3.128.116-3.823.579-4.4a2.914 2.914 0 0 1 1.39-.811v-.463c-1.158.116-3.012.116-3.939.116-1.043 0-3.012 0-4.055-.116v.579z" transform="translate(-78.915 -267.288)"/>
                <path id="path489" class="cls-1" d="M157.32 315.8a24.556 24.556 0 0 1-3.823.348v.579c1.969.348 2.085 1.158 2.085 3.707v4.634c0 2.2 0 3.591-.463 4.171a2.419 2.419 0 0 1-1.622.927v.463c1.274-.116 3.244-.116 3.823-.116 1.274 0 2.664 0 3.707.116v-.463a1.67 1.67 0 0 1-1.274-1.043V329c-.116-.348-.348-.7-.348-3.36v-7.762a4.093 4.093 0 0 1 1.969-.463c2.433 0 2.549 1.854 2.664 2.9 0 .463.116 1.969.116 2.78v3.36c0 1.158 0 2.549-.579 3.128l-.116.116c-.116.232-.348.348-.811.463v.463c1.043-.116 3.128-.116 3.823-.116 1.043 0 3.012 0 3.823.116v-.463a2.552 2.552 0 0 1-1.854-1.043c-.232-.463-.348-.927-.348-3.128v-4.4a9.9 9.9 0 0 0-.462-3.591 3.954 3.954 0 0 0-3.939-2.549 5.5 5.5 0 0 0-4.171 1.969l-.116.116s.116-1.969.116-2.085c0 0-.232-.116-.232-.232a17.878 17.878 0 0 1-1.969.579" transform="translate(-78.915 -267.288)"/>
                <path id="path491" class="cls-1" d="M181.879 308.152a47.504 47.504 0 0 1-4.055.232v.579a2.553 2.553 0 0 1 1.738 1.043 7.283 7.283 0 0 1 .463 3.36v3.707l-.116-.116a4.125 4.125 0 0 0-3.36-1.39c-3.939 0-6.372 3.128-6.372 8.109 0 4.634 2.2 7.414 5.792 7.414a4.942 4.942 0 0 0 4.055-1.969l.116-.116v.232a2.05 2.05 0 0 0 2.317 1.854 4.708 4.708 0 0 0 3.475-1.738c0-.116-.116-.348-.116-.463-.927 0-1.39-.116-1.622-.348-.463-.463-.463-1.043-.463-2.2v-7.646c0-4.4 0-8.8.232-10.658l-.232-.116c-.348 0-1.043.116-1.854.232m-7.53 15.292c0-2.664.463-4.4 1.506-5.445a3.235 3.235 0 0 1 2.317-.927 3.744 3.744 0 0 1 1.854.348v11.121a3.313 3.313 0 0 1-1.969.579c-2.433 0-3.707-1.969-3.707-5.676" transform="translate(-78.915 -267.288)"/>
                <path id="path493" class="cls-1" d="M186.977 323.444c0 6.487 4.17 7.414 6.719 7.414a6.553 6.553 0 0 0 5.213-2.2c0-.116-.232-.348-.232-.463a5.807 5.807 0 0 1-2.78.579c-4.4 0-4.866-3.707-4.866-6.6v-.116h8.341v-.116a8.551 8.551 0 0 0-.927-4.171 5.164 5.164 0 0 0-4.4-2.317c-5.329 0-7.067 4.286-7.067 7.993m3.939-2.2c0-2.085.232-4.75 2.433-4.75 1.854 0 1.969 1.969 1.969 3.823v.348l-4.4.579z" transform="translate(-78.915 -267.288)"/>
                <path id="path495" class="cls-1" d="M203.2 315.8a25.815 25.815 0 0 1-3.707.348v.579c1.969.348 2.085 1.158 2.085 3.707v12.046c0 2.2 0 3.591-.463 4.171a2.419 2.419 0 0 1-1.622.927v.463c1.274-.116 3.707-.116 4.286-.116 1.274 0 3.36 0 4.286.116v-.463h-.116a2.58 2.58 0 0 1-1.969-1.043 6.263 6.263 0 0 1-.463-3.128v-3.823l.116.116a3.807 3.807 0 0 0 3.36 1.39c3.939 0 6.372-3.128 6.372-8.109 0-3.591-1.506-7.414-5.792-7.414a5.453 5.453 0 0 0-4.055 1.969l-.116.116s.116-1.969.116-2.085c0 0-.232-.116-.232-.232-.579.116-1.622.347-2.085.463m2.2 13.322V318a3.313 3.313 0 0 1 1.969-.579c2.433 0 3.707 1.969 3.707 5.676v.116c0 2.549-.463 4.286-1.506 5.329a3.319 3.319 0 0 1-2.433.927 3.546 3.546 0 0 1-1.738-.348" transform="translate(-78.915 -267.288)"/>
                <path id="path497" class="cls-1" d="M216.981 323.444c0 6.487 4.17 7.414 6.719 7.414a6.553 6.553 0 0 0 5.213-2.2c0-.116-.232-.348-.232-.463a5.807 5.807 0 0 1-2.78.579c-4.4 0-4.866-3.707-4.866-6.6v-.116h8.341v-.116a8.551 8.551 0 0 0-.927-4.171 5.164 5.164 0 0 0-4.4-2.317c-5.329 0-7.067 4.286-7.067 7.993m3.939-2.2c0-2.085.232-4.75 2.433-4.75 1.854 0 1.969 1.969 1.969 3.823v.348l-4.4.579z" transform="translate(-78.915 -267.288)"/>
                <path id="path499" class="cls-1" d="M234.01 315.8a25.819 25.819 0 0 1-3.823.348v.579c1.969.348 2.085 1.158 2.085 3.707v4.634c0 2.2 0 3.591-.579 4.171a2.419 2.419 0 0 1-1.622.927v.463c1.274-.116 3.244-.116 3.823-.116 1.274 0 2.664 0 3.707.116v-.463a1.67 1.67 0 0 1-1.274-1.043c-.116-.348-.348-.7-.348-3.36V318a4.093 4.093 0 0 1 1.969-.463c2.433 0 2.549 1.854 2.664 2.9 0 .463.116 1.969.116 2.78v3.36c0 1.158 0 2.549-.579 3.128l-.116.116c-.116.232-.348.348-.811.463v.463c1.043-.116 3.128-.116 3.823-.116 1.043 0 3.012 0 3.823.116v-.579a2.552 2.552 0 0 1-1.854-1.043c-.232-.463-.348-.927-.348-3.128v-4.4A9.9 9.9 0 0 0 244.2 318a3.954 3.954 0 0 0-3.939-2.549 5.5 5.5 0 0 0-4.17 1.969l-.116.116s.116-1.969.116-2.085c0 0-.232-.116-.232-.232a8.684 8.684 0 0 1-1.854.579" transform="translate(-78.915 -267.288)"/>
                <path id="path501" class="cls-1" d="M258.917 308.152a47.504 47.504 0 0 1-4.055.232v.579a2.553 2.553 0 0 1 1.738 1.043 7.283 7.283 0 0 1 .463 3.36v3.707l-.116-.116a4.125 4.125 0 0 0-3.36-1.39c-3.939 0-6.372 3.128-6.372 8.109 0 4.634 2.2 7.414 5.792 7.414a4.942 4.942 0 0 0 4.055-1.969l.116-.116v.232a2.05 2.05 0 0 0 2.317 1.854 4.708 4.708 0 0 0 3.475-1.738c0-.116-.116-.348-.116-.463-.927 0-1.39-.116-1.622-.348-.463-.463-.463-1.043-.463-2.2v-7.646c0-4.4 0-8.8.232-10.658l-.232-.116a15.866 15.866 0 0 0-1.854.232m-7.646 15.292c0-2.664.463-4.4 1.506-5.445a3.235 3.235 0 0 1 2.317-.927 3.744 3.744 0 0 1 1.854.348v11.121a3.313 3.313 0 0 1-1.969.579c-2.433 0-3.707-1.969-3.707-5.676" transform="translate(-78.915 -267.288)"/>
                <path id="path503" class="cls-1" d="M263.667 323.444c0 6.487 4.17 7.414 6.719 7.414a6.553 6.553 0 0 0 5.213-2.2c0-.116-.232-.348-.232-.463a5.807 5.807 0 0 1-2.78.579c-4.4 0-4.866-3.707-4.866-6.6v-.116h8.341v-.116a8.551 8.551 0 0 0-.927-4.171 5.164 5.164 0 0 0-4.4-2.317c-5.329 0-7.067 4.286-7.067 7.993m3.939-2.2c0-2.085.232-4.75 2.433-4.75 1.854 0 1.969 1.969 1.969 3.823v.348l-4.4.579z" transform="translate(-78.915 -267.288)"/>
                <path id="path505" class="cls-1" d="M280.7 315.8a25.819 25.819 0 0 1-3.823.348v.579c1.969.348 2.085 1.158 2.085 3.707v4.634c0 2.2 0 3.591-.463 4.171a2.419 2.419 0 0 1-1.622.927v.463c1.274-.116 3.244-.116 3.823-.116 1.274 0 2.664 0 3.707.116v-.463a1.67 1.67 0 0 1-1.274-1.043c-.116-.348-.348-.7-.348-3.36V318a4.093 4.093 0 0 1 1.969-.463c2.433 0 2.549 1.854 2.664 2.9 0 .463.116 1.969.116 2.78v3.36c0 1.158 0 2.549-.579 3.128l-.116.116c-.116.232-.348.348-.811.463v.463c1.043-.116 3.128-.116 3.823-.116 1.043 0 3.012 0 3.823.116v-.579a2.552 2.552 0 0 1-1.854-1.043c-.232-.463-.348-.927-.348-3.128v-4.4a9.9 9.9 0 0 0-.463-3.591 3.954 3.954 0 0 0-3.939-2.549 5.5 5.5 0 0 0-4.17 1.969l-.116.116s.116-1.969.116-2.085c0 0-.232-.116-.232-.232a12.663 12.663 0 0 1-1.969.579" transform="translate(-78.915 -267.288)"/>
            </g>
            <g id="Group_18636" data-name="Group 18636">
                <path id="path507" class="cls-1" d="M85.727 310.7c-.463.579-.579 1.274-.579 4.4v11.121a7.138 7.138 0 0 0 .348 3.128 2.264 2.264 0 0 0 1.622.927v.7c-1.158-.116-3.128-.116-4.17-.116s-3.012 0-4.055.116v-.811a3.879 3.879 0 0 0 1.506-.811c.463-.579.579-1.274.579-4.4v-11.009c0-1.622 0-2.549-.348-3.128-.232-.463-.579-.7-1.622-.927v-.579c1.158.116 3.128.116 4.17.116s2.9 0 4.055-.116v.7a2.243 2.243 0 0 0-1.506.7" transform="translate(-78.915 -267.288)"/>
                <path id="path509" class="cls-1" d="M98.586 320.316a1.7 1.7 0 0 1-1.854-1.854 1.5 1.5 0 0 1 .232-.927h-.116a3.715 3.715 0 0 0-2.2.7v7.762c0 2.085.116 2.549.463 3.012.348.7 1.506.927 2.085 1.043v.7c-.811-.116-3.36-.116-4.518-.116-.579 0-2.9 0-4.17.116v-.579a2.054 2.054 0 0 0 1.622-.927c.579-.7.463-2.664.463-5.561v-2.664c0-3.128.116-3.939-2.085-4.286v-.7a31.9 31.9 0 0 0 3.939-.348 8.682 8.682 0 0 0 1.854-.463l.348.232-.116 2.085a4.179 4.179 0 0 1 3.475-2.2 2.418 2.418 0 0 1 2.549 2.549c0 1.622-.927 2.433-1.969 2.433" transform="translate(-78.915 -267.288)"/>
                <path id="path511" class="cls-1" d="M105.3 330.626c-.7 0-2.78 0-4.055.116v-.579a2.054 2.054 0 0 0 1.622-.927c.579-.7.463-2.664.463-5.561v-2.664c0-3.128.116-3.939-2.085-4.286v-.7a28.74 28.74 0 0 0 3.823-.348 13.477 13.477 0 0 0 2.085-.463l.348.232c-.232 2.78-.116 9.036-.116 9.384v1.158c0 2.2.116 2.549.348 3.012a2.783 2.783 0 0 0 1.969 1.043v.7c-.927 0-3.128-.116-4.4-.116m.116-17.84a2.249 2.249 0 0 1-2.317-2.317 2.32 2.32 0 1 1 4.634 0 2.249 2.249 0 0 1-2.317 2.317" transform="translate(-78.915 -267.288)"/>
                <path id="path513" class="cls-1" d="M114.688 330.974a12.629 12.629 0 0 1-3.823-.579v-.811c0-1.506-.116-1.969-.116-2.9h.811c.811 2.2 1.506 3.128 3.128 3.128 1.043 0 2.433-.348 2.433-2.085 0-1.158-.579-1.622-1.506-2.2l-2.085-1.274a4.235 4.235 0 0 1-2.317-4.17 4.282 4.282 0 0 1 1.622-3.36 5.615 5.615 0 0 1 3.707-1.043c1.506 0 1.854.232 2.78.232.232 0 .463 0 .579-.232l.232.116a11.1 11.1 0 0 0 0 1.969v1.854h-.7c-.7-1.969-1.274-2.78-2.549-2.78-.116 0-2.317-.116-2.317 1.854 0 1.158.7 1.738 1.622 2.317l1.969 1.274a4.65 4.65 0 0 1 2.433 4.286c-.232 1.738-1.506 4.4-5.908 4.4" transform="translate(-78.915 -267.288)"/>
                <path id="path515" class="cls-1" d="M133.687 330.626c-.7 0-2.9 0-3.823.116v-.579a1.429 1.429 0 0 0 .927-.579c.579-.7.579-2.317.579-3.36v-3.012a19.679 19.679 0 0 0-.116-2.78c-.116-1.158-.348-2.9-2.549-2.9a3.55 3.55 0 0 0-1.969.463v7.762c0 2.9.116 3.012.348 3.36a1.355 1.355 0 0 0 1.274.927v.7c-1.158-.116-2.549-.116-3.707-.116-.7 0-2.78 0-3.939.116v-.579a2.054 2.054 0 0 0 1.622-.927c.579-.7.463-2.664.463-5.561v-8.8c0-2.2.116-4.286-.463-4.866a2.2 2.2 0 0 0-1.738-.927v-.7c.927 0 3.012-.116 4.055-.232a9.3 9.3 0 0 0 2.085-.463l.348.232c-.116.579-.232 3.36-.232 9.152v.463a5.143 5.143 0 0 1 4.17-1.969 3.993 3.993 0 0 1 4.055 2.549 10.21 10.21 0 0 1 .463 3.591v4.4c0 2.2.116 2.549.348 3.012a2.779 2.779 0 0 0 1.854 1.043v.7c-.927-.116-2.9-.232-4.055-.232" transform="translate(-78.915 -267.288)"/>
                <path id="path517" class="cls-1" d="M150.832 310.7c-.463.579-.579 1.274-.579 4.4v11.121a7.138 7.138 0 0 0 .348 3.128 2.264 2.264 0 0 0 1.622.927v.7c-1.158-.116-3.128-.116-4.17-.116s-3.012 0-4.055.116v-.811a3.88 3.88 0 0 0 1.506-.811c.463-.579.579-1.274.579-4.4v-11.009c0-1.622 0-2.549-.348-3.128-.232-.463-.579-.7-1.622-.927v-.579c1.158.116 3.128.116 4.17.116s3.012 0 4.055-.116v.7a2.243 2.243 0 0 0-1.506.7" transform="translate(-78.915 -267.288)"/>
                <path id="path519" class="cls-1" d="M166.356 330.626c-.7 0-2.9 0-3.823.116v-.579a1.429 1.429 0 0 0 .927-.579c.579-.7.579-2.317.579-3.36v-3.012a19.676 19.676 0 0 0-.116-2.78c-.116-1.158-.232-2.9-2.549-2.9a3.55 3.55 0 0 0-1.969.463v7.762c0 2.9.116 3.012.348 3.36a1.355 1.355 0 0 0 1.274.927v.7c-1.158-.116-2.549-.116-3.707-.116-.579 0-2.78 0-3.939.116v-.579a2.054 2.054 0 0 0 1.622-.927c.579-.7.463-2.664.463-5.561v-2.664c0-3.128.116-3.939-2.085-4.286v-.7a31.9 31.9 0 0 0 3.939-.348 8.682 8.682 0 0 0 1.854-.463l.348.232-.116 1.854a5.522 5.522 0 0 1 4.286-1.969 3.739 3.739 0 0 1 3.939 2.549 10.211 10.211 0 0 1 .463 3.591v4.4c0 2.2.116 2.549.348 3.012a2.779 2.779 0 0 0 1.854 1.043v.7c-.811.116-2.78 0-3.939 0" transform="translate(-78.915 -267.288)"/>
                <path id="path521" class="cls-1" d="M182.574 330.974a2.252 2.252 0 0 1-2.432-1.974 4.954 4.954 0 0 1-4.17 2.085c-3.707 0-5.908-2.9-5.908-7.53 0-4.866 2.2-8.225 6.487-8.225a4.371 4.371 0 0 1 3.475 1.39v-1.854c0-2.2.116-4.286-.463-4.866a2.2 2.2 0 0 0-1.738-.927v-.7c.927 0 3.012-.116 4.055-.232a7.035 7.035 0 0 0 1.969-.463l.348.232c-.232 1.854-.232 6.372-.232 10.658v7.646c0 1.274 0 1.738.463 2.2a2.564 2.564 0 0 0 1.622.348l.116.579a5.188 5.188 0 0 1-3.591 1.622m-2.549-13.438a3.744 3.744 0 0 0-1.854-.348c-3.939 0-3.823 5.329-3.823 6.256 0 3.707 1.274 5.561 3.707 5.561a3.06 3.06 0 0 0 1.969-.579v-10.89z" transform="translate(-78.915 -267.288)"/>
                <path id="path523" class="cls-1" d="M190.915 322.17v.116c0 2.664.463 6.487 4.866 6.487a6.023 6.023 0 0 0 2.78-.579l.348.579a6.4 6.4 0 0 1-5.213 2.2c-2.2 0-6.719-.811-6.719-7.53 0-3.475 1.622-7.993 6.951-7.993a5.043 5.043 0 0 1 4.518 2.317 8.471 8.471 0 0 1 .927 4.286v.232h-8.457zm4.286-1.854c0-2.085-.232-3.707-1.969-3.707-2.2 0-2.317 2.78-2.317 4.634l4.286-.7v-.232z" transform="translate(-78.915 -267.288)"/>
                <path id="path525" class="cls-1" d="M208.872 331.09a4.31 4.31 0 0 1-3.475-1.39v3.591c0 2.2.232 2.664.463 3.128.348.7 1.506.927 2.085 1.043v.7c-.811-.116-3.128-.116-4.4-.116-.7 0-3.128 0-4.286.116v-.7a2.419 2.419 0 0 0 1.622-.927c.579-.7.463-2.549.463-5.561v-9.963c0-3.128.116-3.939-2.085-4.286v-.7a30.439 30.439 0 0 0 3.823-.348 9.815 9.815 0 0 0 1.969-.463l.348.232-.116 1.854a5.465 5.465 0 0 1 4.17-1.969c4.286 0 5.792 3.823 5.792 7.53.116 4.75-2.085 8.225-6.372 8.225m-1.506-13.67a3.06 3.06 0 0 0-1.967.584v11a3.744 3.744 0 0 0 1.854.348c3.939 0 3.823-5.329 3.823-6.256 0-3.707-1.274-5.676-3.707-5.676" transform="translate(-78.915 -267.288)"/>
                <path id="path527" class="cls-1" d="M221.035 322.17v.116c0 2.664.463 6.487 4.866 6.487a6.023 6.023 0 0 0 2.78-.579l.348.579a6.4 6.4 0 0 1-5.213 2.2c-2.2 0-6.719-.811-6.719-7.53 0-3.475 1.622-7.993 6.951-7.993a5.043 5.043 0 0 1 4.518 2.317 8.471 8.471 0 0 1 .927 4.286v.232h-8.457zm4.286-1.854c0-2.085-.232-3.707-1.969-3.707-2.2 0-2.317 2.78-2.317 4.634l4.286-.7z" transform="translate(-78.915 -267.288)"/>
                <path id="path529" class="cls-1" d="M243.046 330.626c-.7 0-2.9 0-3.823.116v-.579a1.429 1.429 0 0 0 .927-.579c.579-.7.579-2.317.579-3.36v-3.012a19.679 19.679 0 0 0-.116-2.78c-.116-1.158-.232-2.9-2.549-2.9a3.55 3.55 0 0 0-1.964.468v7.762c0 2.9.116 3.012.348 3.36a1.355 1.355 0 0 0 1.274.927v.7c-1.158-.116-2.549-.116-3.707-.116-.579 0-2.78 0-3.939.116v-.579a2.054 2.054 0 0 0 1.622-.927c.579-.7.463-2.664.463-5.561v-2.664c0-3.128.116-3.939-2.085-4.286v-.7a31.9 31.9 0 0 0 3.939-.348 8.682 8.682 0 0 0 1.854-.463l.348.232-.117 1.847a5.522 5.522 0 0 1 4.286-1.969 3.739 3.739 0 0 1 3.939 2.549 10.211 10.211 0 0 1 .463 3.591v4.4c0 2.2.116 2.549.348 3.012a2.779 2.779 0 0 0 1.854 1.043v.7c-.811.116-2.664 0-3.939 0" transform="translate(-78.915 -267.288)"/>
                <path id="path531" class="cls-1" d="M259.5 330.974a2.252 2.252 0 0 1-2.436-1.974 4.954 4.954 0 0 1-4.171 2.085c-3.707 0-5.908-2.9-5.908-7.53 0-4.866 2.2-8.225 6.487-8.225a4.371 4.371 0 0 1 3.475 1.39v-1.854c0-2.2.116-4.286-.463-4.866a2.2 2.2 0 0 0-1.738-.927v-.7c.927 0 3.012-.116 4.055-.232a7.035 7.035 0 0 0 1.969-.463l.348.232c-.232 1.854-.232 6.372-.232 10.658v7.646c0 1.274 0 1.738.463 2.2a2.564 2.564 0 0 0 1.622.348l.116.579a4.93 4.93 0 0 1-3.591 1.622m-2.549-13.438a3.744 3.744 0 0 0-1.854-.348c-3.939 0-3.823 5.329-3.823 6.256 0 3.707 1.274 5.561 3.707 5.561a3.06 3.06 0 0 0 1.969-.579v-10.89z" transform="translate(-78.915 -267.288)"/>
                <path id="path533" class="cls-1" d="M267.606 322.17v.116c0 2.664.463 6.487 4.866 6.487a6.023 6.023 0 0 0 2.78-.579l.348.579a6.4 6.4 0 0 1-5.213 2.2c-2.2 0-6.719-.811-6.719-7.53 0-3.475 1.622-7.993 6.951-7.993a5.043 5.043 0 0 1 4.518 2.317 8.471 8.471 0 0 1 .927 4.286v.232h-8.457zm4.4-1.854c0-2.085-.232-3.707-1.969-3.707-2.2 0-2.317 2.78-2.317 4.634l4.286-.7z" transform="translate(-78.915 -267.288)"/>
                <path id="path535" class="cls-1" d="M289.733 330.626c-.7 0-2.9 0-3.823.116v-.579a1.429 1.429 0 0 0 .927-.579c.579-.7.579-2.317.579-3.36v-3.012a19.679 19.679 0 0 0-.116-2.78c-.116-1.158-.232-2.9-2.549-2.9a3.55 3.55 0 0 0-1.969.463v7.762c0 2.9.116 3.012.348 3.36a1.355 1.355 0 0 0 1.274.927v.7c-1.158-.116-2.549-.116-3.707-.116-.579 0-2.78 0-3.939.116v-.579a2.054 2.054 0 0 0 1.622-.927c.579-.7.463-2.664.463-5.561v-2.664c0-3.128.116-3.939-2.085-4.286v-.7a31.9 31.9 0 0 0 3.939-.348 8.683 8.683 0 0 0 1.854-.463l.348.232-.116 1.854a5.522 5.522 0 0 1 4.286-1.969 3.739 3.739 0 0 1 3.939 2.549 10.211 10.211 0 0 1 .463 3.591v4.4c0 2.2.116 2.549.348 3.012a2.779 2.779 0 0 0 1.854 1.043v.7c-.811.116-2.664 0-3.939 0" transform="translate(-78.915 -267.288)"/>
                <path id="path537" class="cls-1" d="M299.464 330.974c-1.506 0-3.475-.232-4.055-3.012a23.169 23.169 0 0 1-.232-4.171c0-2.433 0-4.17.116-6.6h-1.738v-.811a5.052 5.052 0 0 0 2.9-1.738 5.468 5.468 0 0 0 1.274-3.128h1.622c-.116 1.622-.116 2.78-.116 4.17l4.518-.232v1.738l-4.518-.116v7.182c0 2.433-.116 4.518 2.664 4.518a7.823 7.823 0 0 0 1.622-.232l.232.579a5.64 5.64 0 0 1-4.286 1.854" transform="translate(-78.915 -267.288)"/>
            </g>
        </g>
    </g>
</svg>
