<svg xmlns="http://www.w3.org/2000/svg" width="26.457" height="40.035" viewBox="0 0 26.457 40.035">
    <path data-name="Subtraction 1" d="M9851.473 1132.052h-21.765a4.7 4.7 0 0 1-4.692-4.693v-23.614h15.247a1.175 1.175 0 0 0 1.175-1.172v-5.865a4.637 4.637 0 0 1 1.411-3.326 4.671 4.671 0 0 1 7.972 3.326v33a4.6 4.6 0 0 0 .651 2.345zm-20.592-7.039a1.173 1.173 0 0 0 0 2.346h14.075a1.173 1.173 0 1 0 0-2.346zm2.341-8.916a5.736 5.736 0 0 0 5.761 4.1 5.644 5.644 0 0 0 4.431-1.872l-1.328-1.281a3.9 3.9 0 0 1-2.991 1.328 3.848 3.848 0 0 1-3.679-2.272h4.591v-1.12h-4.9c-.017-.173-.032-.35-.032-.544s.015-.357.032-.544h4.9v-1.12h-4.591a3.85 3.85 0 0 1 3.679-2.272 3.934 3.934 0 0 1 2.991 1.313l1.328-1.266a5.645 5.645 0 0 0-4.431-1.872 5.737 5.737 0 0 0-5.761 4.1h-1.822v1.12h1.614c-.015.176-.015.354-.015.544s0 .368.015.544h-1.614v1.12z" transform="translate(-9825.016 -1092.017)" style="fill:#357df2"/>
</svg>
