<svg xmlns="http://www.w3.org/2000/svg" width="40.234" height="40.234" viewBox="0 0 40.234 40.234">
    <defs>
        <style>
            .cls-1{fill:#ff9c58}
        </style>
    </defs>
    <g id="price-tag">
        <path id="Path_15855" data-name="Path 15855" class="cls-1" d="m215.661 153.011-2.11-2.813-1.173 8.213a3.557 3.557 0 0 1-1 2l-14.448 14.447a6.634 6.634 0 0 1-4.723 1.954 6.741 6.741 0 0 1-1.563-.184 4.322 4.322 0 0 0 3.643 2h17.288a4.327 4.327 0 0 0 4.322-4.322v-20.587a1.179 1.179 0 0 0-.236-.708z" transform="translate(-175.663 -138.395)"/>
        <circle id="Ellipse_562" data-name="Ellipse 562" class="cls-1" cx="1.179" cy="1.179" r="1.179" transform="translate(23.145 17.225)"/>
        <circle id="Ellipse_563" data-name="Ellipse 563" class="cls-1" cx="1.179" cy="1.179" r="1.179" transform="translate(9.809 17.225)"/>
        <path id="Path_15856" data-name="Path 15856" class="cls-1" d="m19.6 34.8 14.448-14.451a1.179 1.179 0 0 0 .333-.667l1.668-11.669a1.179 1.179 0 0 0-.333-1l-2.5-2.5-3.335 3.334.834.834a1.179 1.179 0 1 1-1.667 1.667l-3.335-3.335a1.179 1.179 0 1 1 1.667-1.667l.834.834 3.334-3.334-2.5-2.5a1.18 1.18 0 0 0-1-.333l-11.67 1.666a1.179 1.179 0 0 0-.667.333L1.264 16.459a4.327 4.327 0 0 0 0 6.112L13.489 34.8a4.327 4.327 0 0 0 6.112 0zm4.723-19.928a3.536 3.536 0 1 1-3.535 3.528 3.54 3.54 0 0 1 3.536-3.536zM10.988 21.94a3.536 3.536 0 1 1 3.536-3.54 3.54 3.54 0 0 1-3.536 3.54zm3.89 5.978a1.179 1.179 0 0 1-1.118-1.552L19.316 9.7a1.179 1.179 0 1 1 2.237.746L16 27.112a1.18 1.18 0 0 1-1.122.806z"/>
        <path id="Path_15857" data-name="Path 15857" class="cls-1" d="M405.624 2.012a1.179 1.179 0 0 0-1.667-1.667l-2.5 2.5 1.667 1.667z" transform="translate(-369.909)"/>
    </g>
</svg>
