<svg xmlns="http://www.w3.org/2000/svg" width="229.364" height="45.812" viewBox="0 0 229.364 45.812">
    <defs>
        <style>
            .cls-1{fill:#fff}
        </style>
    </defs>
    <g id="Logo" transform="translate(-175.509 -185.188)">
        <g id="Group_18894" data-name="Group 18894" transform="translate(175.509 185.188)">
            <path id="Path_16098" data-name="Path 16098" class="cls-1" d="M227.387 223.319a.587.587 0 0 0 .075-.007c.059-.008.118-.014.177-.024.083-.013.167-.028.25-.045q.23-.048.455-.115a5.157 5.157 0 0 0 1.741-.917.4.4 0 0 0 .038-.035 1.125 1.125 0 0 0 .313-.735 1.073 1.073 0 0 0-.024-.283 1.123 1.123 0 0 0-.28-.538.593.593 0 0 0-.044-.043 1.168 1.168 0 0 0-1.553-.008.393.393 0 0 0-.048.049 5.18 5.18 0 0 0-1.022 2.15 3.646 3.646 0 0 0-.044.232c-.008.052-.017.1-.024.156l-.015.119a.3.3 0 0 0 0 .031.022.022 0 0 0 0 .007.009.009 0 0 0 .005.006z" transform="translate(-209.047 -207.876)"/>
            <path id="Path_16099" data-name="Path 16099" class="cls-1" d="M227.4 235.613a4.789 4.789 0 0 0 .131.648 5.184 5.184 0 0 0 .963 1.9.437.437 0 0 0 .035.038 1.13 1.13 0 0 0 .752.313.916.916 0 0 0 .117 0 1.061 1.061 0 0 0 .149-.022 1.1 1.1 0 0 0 .584-.326 1.132 1.132 0 0 0 .017-1.541.6.6 0 0 0-.067-.063 5.174 5.174 0 0 0-2.353-1.057c-.095-.017-.19-.029-.285-.041h-.048a.01.01 0 0 0-.011.01v.034c.002.03.006.068.016.107z" transform="translate(-209.047 -217.688)"/>
            <path id="Path_16100" data-name="Path 16100" class="cls-1" d="M187.043 200.739h.04v-.01l-.03-.038a3.205 3.205 0 0 1-.688-1.728.054.054 0 0 0 0-.013.21.21 0 0 1-.005-.065v-.4a.2.2 0 0 1 .005-.061.124.124 0 0 0 0-.02v-.031c.007-.062.014-.125.024-.187.014-.092.033-.182.055-.272a3.148 3.148 0 0 1 .405-.949 3.2 3.2 0 0 1 1.425-1.226 3.077 3.077 0 0 1 .606-.2 3.772 3.772 0 0 1 .335-.055l.079-.008c.063-.006.125-.01.188-.011h.231c.072.005.144.009.216.017s.116.014.173.024q.146.024.288.062a3.2 3.2 0 0 1 1.027.477q.089.062.173.13l.025.018a.007.007 0 0 0 .008 0V185.188h-16.114v15.551z" transform="translate(-175.509 -185.188)"/>
            <path id="Path_16101" data-name="Path 16101" class="cls-1" d="M227.072 196.155v.093a.006.006 0 0 0 .008 0l.028-.02a3.207 3.207 0 0 1 .839-.488 3.154 3.154 0 0 1 .522-.156q.084-.018.169-.031l.112-.015.1-.01c.05-.006.1-.008.151-.01h.309c.057 0 .114.008.171.014s.1.013.153.02q.131.02.259.052a3.161 3.161 0 0 1 .835.334 3.2 3.2 0 0 1 1.223 1.245 3.151 3.151 0 0 1 .313.825 3.063 3.063 0 0 1 .06.344c.004.037.007.064.009.1 0 .049.009.1.01.147a3.338 3.338 0 0 1-.011.429 2.862 2.862 0 0 1-.024.2q-.023.148-.059.293a3.192 3.192 0 0 1-.363.874 3.3 3.3 0 0 1-.254.363l-.017.022v.01h11.047a16.636 16.636 0 0 0-15.59-15.521v10.886z" transform="translate(-208.849 -185.243)"/>
            <path id="Path_16102" data-name="Path 16102" class="cls-1" d="M215.115 223.207a4.046 4.046 0 0 0-.031-.217q-.03-.18-.072-.356a5.119 5.119 0 0 0-.283-.852 5.184 5.184 0 0 0-.712-1.184.49.49 0 0 0-.049-.052 1.148 1.148 0 0 0-.769-.3c-.038 0-.076 0-.113.006a1.14 1.14 0 0 0-.657.289l-.03.027h-.028a.069.069 0 0 0-.053.021l-.021.022a1.088 1.088 0 0 0-.105.135 1.058 1.058 0 0 0-.175.583v.1a1.048 1.048 0 0 0 .04.209 1.171 1.171 0 0 0 .289.492.733.733 0 0 0 .074.067 5.165 5.165 0 0 0 1.889.958q.169.046.34.079c.063.012.126.024.189.034l.1.015.133.017h.038a.01.01 0 0 0 .011-.011c.001-.027-.003-.055-.005-.082z" transform="translate(-199.113 -207.856)"/>
            <path id="Path_16103" data-name="Path 16103" class="cls-1" d="M231.656 235.148h-.04c-.003 0 0 .012.007.017a.2.2 0 0 0 .015.019 3.217 3.217 0 0 1 .626 1.292 3.652 3.652 0 0 1 .06.344c.004.037.007.064.009.1 0 .05.009.1.01.151v.329c0 .073-.012.146-.021.219s-.024.163-.041.243a3.217 3.217 0 0 1-2.8 2.54.046.046 0 0 0-.023.007h-.658a.037.037 0 0 0-.019-.006h-.034c-.068-.01-.136-.019-.2-.031a3.208 3.208 0 0 1-1.428-.656l-.019-.015-.008-.006h-.011V250.728a16.606 16.606 0 0 0 15.6-15.58z" transform="translate(-208.849 -217.491)"/>
            <path id="Path_16104" data-name="Path 16104" class="cls-1" d="M191.626 239.716a.143.143 0 0 0 0-.017v-.008a.017.017 0 0 0-.009 0l-.022.017a3.214 3.214 0 0 1-1.405.658c-.07.013-.14.025-.21.034a.033.033 0 0 0-.019.007h-.783a.042.042 0 0 0-.019-.006c-.071-.008-.142-.021-.213-.034a3.219 3.219 0 0 1-2.446-2.167 3.107 3.107 0 0 1-.13-.589.6.6 0 0 0-.008-.061.276.276 0 0 1-.006-.068v-.55a.21.21 0 0 1 .006-.068.047.047 0 0 0 0-.01 3.3 3.3 0 0 1 .075-.422 3.187 3.187 0 0 1 .436-.995q.088-.133.189-.257l.017-.022v-.009h-11.57v15.711c0 9.745 4.723 11.548 10.117 12.444v-14.133a16.545 16.545 0 0 0 6 1.55z" transform="translate(-175.509 -217.491)"/>
            <path id="Path_16105" data-name="Path 16105" class="cls-1" d="m215.156 235.453-.068.007c-.059.008-.118.014-.177.024q-.124.02-.246.045a5.153 5.153 0 0 0-2.177 1.017.846.846 0 0 0-.109.1 1.124 1.124 0 0 0-.284.7 1.08 1.08 0 0 0 0 .147 1.131 1.131 0 0 0 .032.186 1.144 1.144 0 0 0 1.131.848 1.145 1.145 0 0 0 .754-.321.69.69 0 0 0 .051-.055 5.186 5.186 0 0 0 1.014-2.112c.02-.087.037-.175.051-.263l.021-.136.018-.129c0-.018 0-.036.005-.055a.01.01 0 0 0-.008-.009z" transform="translate(-199.163 -217.688)"/>
        </g>
        <g id="Group_18895" data-name="Group 18895" transform="translate(219.963 186.271)">
            <path id="Path_16106" data-name="Path 16106" class="cls-1" d="M301.292 210.3v-20.419h6.9a10.783 10.783 0 0 1 4.445.834 6.234 6.234 0 0 1 2.833 2.416 7.142 7.142 0 0 1 .978 3.826 6.8 6.8 0 0 1-.59 2.849 6.465 6.465 0 0 1-1.669 2.23 7.56 7.56 0 0 1-2.574 1.438 10.427 10.427 0 0 1-3.337.5 13.247 13.247 0 0 1-2.071-.173v6.5zm4.919-16.254v5.61a13.007 13.007 0 0 0 1.841.144 3.777 3.777 0 0 0 2.488-.733 2.636 2.636 0 0 0 .878-2.143 2.689 2.689 0 0 0-.849-2.129 3.609 3.609 0 0 0-2.459-.749z" transform="translate(-301.292 -189.306)"/>
            <path id="Path_16107" data-name="Path 16107" class="cls-1" d="M354.2 210.3v-20.419h6.933a11.238 11.238 0 0 1 4.459.805 6.386 6.386 0 0 1 2.874 2.314 6.307 6.307 0 0 1 1.007 3.582 6.015 6.015 0 0 1-.417 2.215 7 7 0 0 1-1.165 1.957 6.928 6.928 0 0 1-1.755 1.495l4.516 8.055h-5.466l-3.366-6.731q-.461.028-.949.029a11.684 11.684 0 0 1-1.755-.144v6.842zm4.919-16.254v5.293q.489.086.978.129t1.036.044a3.679 3.679 0 0 0 2.43-.734 2.5 2.5 0 0 0 .878-2.029 2.4 2.4 0 0 0-.892-2 3.953 3.953 0 0 0-2.5-.7z" transform="translate(-335.5 -189.306)"/>
            <path id="Path_16108" data-name="Path 16108" class="cls-1" d="M418.026 209.828a11.488 11.488 0 0 1-3.481-.518 10.215 10.215 0 0 1-2.963-1.482 10.458 10.458 0 0 1-2.3-2.3 10.206 10.206 0 0 1-1.5-2.977 11.488 11.488 0 0 1-.518-3.48 11.637 11.637 0 0 1 .518-3.5 10.165 10.165 0 0 1 1.5-2.992 10.327 10.327 0 0 1 2.316-2.3 10.735 10.735 0 0 1 2.978-1.5 11.306 11.306 0 0 1 3.51-.532 11.491 11.491 0 0 1 3.48.517 10.243 10.243 0 0 1 2.963 1.481 10.488 10.488 0 0 1 2.3 2.3 10.213 10.213 0 0 1 1.5 2.978 11.49 11.49 0 0 1 .518 3.481 11.619 11.619 0 0 1-.518 3.494 10.166 10.166 0 0 1-1.5 2.992 10.313 10.313 0 0 1-2.316 2.3 10.693 10.693 0 0 1-2.977 1.5 11.29 11.29 0 0 1-3.51.538zm.029-4.6a5.447 5.447 0 0 0 2.244-.461 5.192 5.192 0 0 0 1.783-1.294 6.074 6.074 0 0 0 1.166-1.957 7.546 7.546 0 0 0 0-4.948 6.082 6.082 0 0 0-1.166-1.956 5.218 5.218 0 0 0-1.783-1.295 5.705 5.705 0 0 0-4.488 0 5.223 5.223 0 0 0-1.784 1.295 6.068 6.068 0 0 0-1.165 1.956 7.547 7.547 0 0 0 0 4.948 6.06 6.06 0 0 0 1.165 1.957 5.2 5.2 0 0 0 1.784 1.294 5.446 5.446 0 0 0 2.244.458z" transform="translate(-369.813 -188.253)"/>
            <path id="Path_16109" data-name="Path 16109" class="cls-1" d="M479.625 210.3v-20.419h4.891l5.84 10.9 5.868-10.9H501V210.3h-4.8v-11.962l-4.142 7.709h-3.481l-4.142-7.709V210.3z" transform="translate(-416.598 -189.306)"/>
            <path id="Path_16110" data-name="Path 16110" class="cls-1" d="M562.173 209.828a11.485 11.485 0 0 1-3.48-.518 10.205 10.205 0 0 1-2.963-1.482 10.45 10.45 0 0 1-2.3-2.3 10.206 10.206 0 0 1-1.5-2.977 11.489 11.489 0 0 1-.518-3.48 11.637 11.637 0 0 1 .518-3.5 10.166 10.166 0 0 1 1.5-2.992 10.321 10.321 0 0 1 2.316-2.3 10.732 10.732 0 0 1 2.977-1.5 11.308 11.308 0 0 1 3.509-.532 11.5 11.5 0 0 1 3.481.517 10.252 10.252 0 0 1 2.963 1.481 10.5 10.5 0 0 1 2.3 2.3 10.222 10.222 0 0 1 1.5 2.978 11.479 11.479 0 0 1 .518 3.481 11.609 11.609 0 0 1-.518 3.494 10.175 10.175 0 0 1-1.5 2.992 10.328 10.328 0 0 1-2.316 2.3 10.694 10.694 0 0 1-2.978 1.5 11.288 11.288 0 0 1-3.509.538zm.029-4.6a5.45 5.45 0 0 0 2.244-.461 5.194 5.194 0 0 0 1.783-1.294 6.075 6.075 0 0 0 1.166-1.957 7.546 7.546 0 0 0 0-4.948 6.083 6.083 0 0 0-1.166-1.956 5.22 5.22 0 0 0-1.783-1.295 5.706 5.706 0 0 0-4.488 0 5.222 5.222 0 0 0-1.783 1.295 6.063 6.063 0 0 0-1.165 1.956 7.546 7.546 0 0 0 0 4.948 6.055 6.055 0 0 0 1.165 1.957 5.2 5.2 0 0 0 1.783 1.294 5.446 5.446 0 0 0 2.242.458z" transform="translate(-463.015 -188.253)"/>
            <path id="Path_16111" data-name="Path 16111" class="cls-1" d="M624.635 210.3v-15.99h-5.581v-4.429h16.167v4.429h-5.581v15.99z" transform="translate(-506.75 -189.306)"/>
            <path id="Path_16112" data-name="Path 16112" class="cls-1" d="M676.028 210.3v-20.419h5.005V210.3z" transform="translate(-543.588 -189.306)"/>
            <path id="Path_16113" data-name="Path 16113" class="cls-1" d="M712.262 209.828a11.487 11.487 0 0 1-3.481-.518 10.21 10.21 0 0 1-2.963-1.482 10.458 10.458 0 0 1-2.3-2.3 10.206 10.206 0 0 1-1.5-2.977 11.489 11.489 0 0 1-.518-3.48 11.637 11.637 0 0 1 .518-3.5 10.166 10.166 0 0 1 1.5-2.992 10.328 10.328 0 0 1 2.316-2.3 10.73 10.73 0 0 1 2.978-1.5 11.306 11.306 0 0 1 3.509-.532 11.491 11.491 0 0 1 3.48.517 10.243 10.243 0 0 1 2.963 1.481 10.488 10.488 0 0 1 2.3 2.3 10.212 10.212 0 0 1 1.5 2.978 11.491 11.491 0 0 1 .518 3.481 11.62 11.62 0 0 1-.518 3.494 10.165 10.165 0 0 1-1.5 2.992 10.313 10.313 0 0 1-2.316 2.3 10.693 10.693 0 0 1-2.977 1.5 11.29 11.29 0 0 1-3.509.538zm.029-4.6a5.447 5.447 0 0 0 2.244-.461 5.2 5.2 0 0 0 1.783-1.294 6.068 6.068 0 0 0 1.165-1.957 7.546 7.546 0 0 0 0-4.948 6.076 6.076 0 0 0-1.165-1.956 5.221 5.221 0 0 0-1.783-1.295 5.7 5.7 0 0 0-4.488 0 5.223 5.223 0 0 0-1.784 1.295 6.062 6.062 0 0 0-1.165 1.956 7.546 7.546 0 0 0 0 4.948 6.054 6.054 0 0 0 1.165 1.957 5.2 5.2 0 0 0 1.784 1.294 5.445 5.445 0 0 0 2.244.458z" transform="translate(-560.06 -188.253)"/>
            <path id="Path_16114" data-name="Path 16114" class="cls-1" d="M773.864 210.3v-20.419h4.286l8.8 12.484v-12.484h4.8V210.3h-4.286l-8.8-12.484V210.3z" transform="translate(-606.847 -189.306)"/>
        </g>
        <g id="Group_18896" data-name="Group 18896" transform="translate(219.963 214.833)">
            <path id="Path_16115" data-name="Path 16115" class="cls-1" d="M301.292 284.027v-14.5h2.47v14.5z" transform="translate(-301.292 -269.366)"/>
            <path id="Path_16116" data-name="Path 16116" class="cls-1" d="M328.2 269.529h2.45v14.5h-2.512l-7.044-10.28v10.28h-2.471v-14.5h2.467l7.081 10.407h.029z" transform="translate(-312.498 -269.366)"/>
            <path id="Path_16117" data-name="Path 16117" class="cls-1" d="M363.631 284.027v-12.293h-4.1v-2.205h10.741v2.205H366.1v12.292z" transform="translate(-338.945 -269.366)"/>
            <path id="Path_16118" data-name="Path 16118" class="cls-1" d="M396.735 284.027v-14.5h9.127v2.205h-6.657v4h5.371v2.205h-5.371v3.88h7.085v2.205z" transform="translate(-363.003 -269.366)"/>
            <path id="Path_16119" data-name="Path 16119" class="cls-1" d="M431.8 284.027v-14.5h2.471v12.293h6.718v2.205z" transform="translate(-385.677 -269.366)"/>
            <path id="Path_16120" data-name="Path 16120" class="cls-1" d="M464.909 284.027v-14.5h2.47v12.293h6.721v2.205z" transform="translate(-407.083 -269.366)"/>
            <path id="Path_16121" data-name="Path 16121" class="cls-1" d="M498.245 284.027v-14.5h2.471v14.5z" transform="translate(-428.637 -269.366)"/>
            <path id="Path_16122" data-name="Path 16122" class="cls-1" d="M521.039 283.851a7.237 7.237 0 0 1-5.258-1.991 7.123 7.123 0 0 1-2.052-5.36 7.465 7.465 0 0 1 1.971-5.35 6.9 6.9 0 0 1 5.258-2.083 8.1 8.1 0 0 1 3.062.6 7.178 7.178 0 0 1 2.593 1.787l-1.735 1.511a5.436 5.436 0 0 0-3.941-1.572 4.363 4.363 0 0 0-3.318 1.4 5.184 5.184 0 0 0-1.319 3.707 5.278 5.278 0 0 0 1.3 3.655 4.391 4.391 0 0 0 3.441 1.449 5.716 5.716 0 0 0 3.226-.96v-2.45h-3.553v-2.2h6v6.044a7.444 7.444 0 0 1-2.512 1.327 10.184 10.184 0 0 1-3.163.486z" transform="translate(-438.649 -269.067)"/>
            <path id="Path_16123" data-name="Path 16123" class="cls-1" d="M559.428 284.027v-14.5h9.128v2.205H561.9v4h5.37v2.205h-5.37v3.88h7.086v2.205z" transform="translate(-468.197 -269.366)"/>
            <path id="Path_16124" data-name="Path 16124" class="cls-1" d="M604.074 269.529h2.45v14.5h-2.511l-7.045-10.28v10.28H594.5v-14.5h2.466l7.081 10.407h.029z" transform="translate(-490.872 -269.366)"/>
            <path id="Path_16125" data-name="Path 16125" class="cls-1" d="M644.042 283.851a7.368 7.368 0 0 1-5.207-1.95 6.976 6.976 0 0 1-2.1-5.38 7.578 7.578 0 0 1 1.95-5.329 6.916 6.916 0 0 1 5.36-2.124 7.077 7.077 0 0 1 5.718 2.777l-1.817 1.532a4.914 4.914 0 0 0-3.9-1.981 4.445 4.445 0 0 0-3.431 1.419 5.255 5.255 0 0 0-1.307 3.706 5.047 5.047 0 0 0 1.327 3.624 4.491 4.491 0 0 0 3.41 1.4 4.838 4.838 0 0 0 3.9-1.981l1.817 1.552a7 7 0 0 1-5.72 2.735z" transform="translate(-518.18 -269.067)"/>
            <path id="Path_16126" data-name="Path 16126" class="cls-1" d="M680.7 284.027v-14.5h9.128v2.205h-6.657v4h5.37v2.205h-5.37v3.88h7.086v2.205z" transform="translate(-546.607 -269.366)"/>
        </g>
    </g>
</svg>
