<svg id="sales" xmlns="http://www.w3.org/2000/svg" width="50.09" height="50.09" viewBox="0 0 50.09 50.09">
    <defs>
        <style>
            .cls-1{fill:#7574f9}
        </style>
    </defs>
    <path id="Path_15810" data-name="Path 15810" class="cls-1" d="m144.757 126.922-2.571-.689-.689-2.571a1.467 1.467 0 0 0-1.8-1.037l-2.571.689-1.881-1.882a1.47 1.47 0 0 0-2.076 0l-1.881 1.882-2.571-.689a1.469 1.469 0 0 0-1.8 1.037l-.689 2.571-2.57.689a1.467 1.467 0 0 0-1.038 1.8l.689 2.571-1.882 1.881a1.47 1.47 0 0 0 0 2.076l1.882 1.881-.689 2.571a1.467 1.467 0 0 0 1.038 1.8l2.57.689.689 2.571a1.467 1.467 0 0 0 1.8 1.037l2.571-.689 1.881 1.882a1.469 1.469 0 0 0 2.076 0l1.881-1.882 2.571.689a1.467 1.467 0 0 0 1.8-1.037l.689-2.571 2.571-.689a1.467 1.467 0 0 0 1.037-1.8l-.689-2.571 1.882-1.881a1.47 1.47 0 0 0 0-2.076l-1.882-1.881.689-2.571a1.467 1.467 0 0 0-1.037-1.8zm-13.482 2.885a1.467 1.467 0 1 1-1.467 1.467 1.468 1.468 0 0 1 1.467-1.467zm1.038 8.375a1.468 1.468 0 0 1-2.076-2.076l5.87-5.87a1.468 1.468 0 0 1 2.076 2.076zm4.832.429a1.467 1.467 0 1 1 1.467-1.467 1.468 1.468 0 0 1-1.467 1.468z" transform="translate(-109.165 -109.165)"/>
    <path id="Path_15811" data-name="Path 15811" class="cls-1" d="M48.622 23.577h-4.556A19.109 19.109 0 0 0 26.512 6.024V1.467a1.467 1.467 0 0 0-2.935 0v4.557A19.109 19.109 0 0 0 6.024 23.577H1.467a1.467 1.467 0 0 0 0 2.935h4.557a19.109 19.109 0 0 0 17.553 17.554v4.556a1.467 1.467 0 0 0 2.935 0v-4.556a19.109 19.109 0 0 0 17.554-17.554h4.556a1.467 1.467 0 0 0 0-2.935zm-23.577 17.61a16.142 16.142 0 1 1 16.142-16.142 16.161 16.161 0 0 1-16.142 16.142z"/>
</svg>
