<svg xmlns="http://www.w3.org/2000/svg" width="46.001" height="42.396" viewBox="0 0 46.001 42.396">
    <defs>
        <style>
            .cls-1{fill:#7574f9}
        </style>
    </defs>
    <g id="network" transform="translate(0 -20.064)">
        <g id="Group_18846" data-name="Group 18846" transform="translate(29.086 20.064)">
            <g id="Group_18845" data-name="Group 18845">
                <path id="Path_15858" data-name="Path 15858" class="cls-1" d="M333.828 21.312a4.258 4.258 0 0 0-6.738 5.072l-3.356 3.648a6.888 6.888 0 0 1 .845 3.062l4.495-4.885a4.258 4.258 0 0 0 4.755-6.9z" transform="translate(-323.733 -20.066)"/>
            </g>
        </g>
        <g id="Group_18848" data-name="Group 18848" transform="translate(5.575 20.064)">
            <g id="Group_18847" data-name="Group 18847">
                <path id="Path_15859" data-name="Path 15859" class="cls-1" d="M70.035 26.381a4.253 4.253 0 1 0-1.983 1.825l4.495 4.885a6.889 6.889 0 0 1 .845-3.062z" transform="translate(-62.051 -20.064)"/>
            </g>
        </g>
        <g id="Group_18850" data-name="Group 18850" transform="translate(5.575 51.322)">
            <g id="Group_18849" data-name="Group 18849">
                <path id="Path_15860" data-name="Path 15860" class="cls-1" d="M72.326 370.3a3.678 3.678 0 0 1-1.518-2.331l-2.757 3a4.259 4.259 0 1 0 1.983 1.825z" transform="translate(-62.051 -367.971)"/>
            </g>
        </g>
        <g id="Group_18852" data-name="Group 18852" transform="translate(30.151 51.322)">
            <g id="Group_18851" data-name="Group 18851">
                <path id="Path_15861" data-name="Path 15861" class="cls-1" d="M344.62 371.84a4.265 4.265 0 0 0-4.755-.873l-2.757-3a3.678 3.678 0 0 1-1.518 2.331l2.291 2.49a4.259 4.259 0 1 0 6.738-.952z" transform="translate(-335.591 -367.971)"/>
            </g>
        </g>
        <g id="Group_18854" data-name="Group 18854" transform="translate(0 37.005)">
            <g id="Group_18853" data-name="Group 18853">
                <path id="Path_15862" data-name="Path 15862" class="cls-1" d="M8.3 211.529a4.256 4.256 0 0 0-7.05-1.664 4.259 4.259 0 0 0 6.023 6.023 4.232 4.232 0 0 0 1.027-1.663h5.975a5.954 5.954 0 0 1 .757-2.7z" transform="translate(0 -208.62)"/>
            </g>
        </g>
        <g id="Group_18856" data-name="Group 18856" transform="translate(30.972 37.005)">
            <g id="Group_18855" data-name="Group 18855">
                <path id="Path_15863" data-name="Path 15863" class="cls-1" d="M358.5 209.867a4.256 4.256 0 0 0-7.05 1.664h-6.732a5.953 5.953 0 0 1 .757 2.7h5.975a4.258 4.258 0 1 0 7.05-4.359z" transform="translate(-344.722 -208.621)"/>
            </g>
        </g>
        <g id="Group_18858" data-name="Group 18858" transform="translate(16.962 39.556)">
            <g id="Group_18857" data-name="Group 18857">
                <path id="Path_15864" data-name="Path 15864" class="cls-1" d="M197.934 237.015a6.913 6.913 0 0 1-6.209 0 3.3 3.3 0 0 0-2.934 3.279v7.8a.977.977 0 0 0 .976.976h10.124a.977.977 0 0 0 .976-.976v-7.8a3.3 3.3 0 0 0-2.933-3.279z" transform="translate(-188.791 -237.015)"/>
            </g>
        </g>
        <g id="Group_18860" data-name="Group 18860" transform="translate(18.759 29.114)">
            <g id="Group_18859" data-name="Group 18859">
                <circle id="Ellipse_564" data-name="Ellipse 564" class="cls-1" cx="4.242" cy="4.242" r="4.242"/>
            </g>
        </g>
    </g>
</svg>
