<svg xmlns="http://www.w3.org/2000/svg" width="46.125" height="46.127" viewBox="0 0 46.125 46.127">
    <path d="M23.592 280.6a23.062 23.062 0 1 0 20.836 13.175l-2.29 2.29a2.309 2.309 0 0 1-1.635.68h-.637a17.677 17.677 0 1 1-9.356-9.357v-.637a2.309 2.309 0 0 1 .68-1.635l2.288-2.29a22.952 22.952 0 0 0-9.886-2.226zm14.585 0a.769.769 0 0 0-.523.227l-5.38 5.38a.769.769 0 0 0-.227.545v5.064L21.9 301.964a2.4 2.4 0 1 0 3.39 3.389l10.15-10.15h5.06a.769.769 0 0 0 .545-.227l5.38-5.38a.769.769 0 0 0-.545-1.311h-3.526l.613-.613a2.4 2.4 0 0 0-3.39-3.39l-.611.611v-3.533a.769.769 0 0 0-.788-.766zm-14.585 10.756a12.339 12.339 0 1 0 11.008 6.856l-4.212 4.212a6.953 6.953 0 1 1-5.564-5.564l4.213-4.213a12.2 12.2 0 0 0-5.449-1.29z" transform="translate(-.529 -280.595)" style="fill:#357df2"/>
</svg>
