<svg xmlns="http://www.w3.org/2000/svg" width="42.949" height="42.949" viewBox="0 0 42.949 42.949">
    <path data-name="Path 15865" d="M23.475 2a21.475 21.475 0 1 0 21.474 21.475A21.5 21.5 0 0 0 23.475 2zm0 38.348A17.2 17.2 0 0 1 7.4 28.31a.767.767 0 0 1 1.462-.467 15.651 15.651 0 0 0 14.613 10.971A15.339 15.339 0 1 0 8.211 21.991l1.033-.691a.767.767 0 1 1 .851 1.276l-2.3 1.534c-.014.009-.031.006-.045.014a.685.685 0 0 1-.76 0c-.014-.008-.032 0-.045-.014l-2.3-1.534a.767.767 0 1 1 .848-1.276l1.179.786a16.867 16.867 0 1 1 16.8 18.259zm-6.136-16.873a1.534 1.534 0 0 1 1.534-1.534h3.733l4.155-6.925a1.534 1.534 0 0 1 2.63 1.579l-4.6 7.67a1.533 1.533 0 0 1-1.315.744h-4.6a1.534 1.534 0 0 1-1.537-1.534z" transform="translate(-2 -2)" style="fill:#ff9c58"/>
</svg>
