<svg data-name="352535_loyalty_icon" xmlns="http://www.w3.org/2000/svg" width="45.648" height="45.648" viewBox="0 0 45.648 45.648">
    <path data-name="Path 15849" d="M0 0h45.648v45.648H0z" style="fill:none"/>
    <path data-name="Path 15850" d="M40.918 22.221 23.81 5.113A3.794 3.794 0 0 0 21.118 4H7.8A3.8 3.8 0 0 0 4 7.8v13.318a3.763 3.763 0 0 0 1.122 2.692L22.24 40.928a3.8 3.8 0 0 0 5.373 0l13.315-13.314a3.811 3.811 0 0 0-.01-5.392zM10.657 13.51a2.853 2.853 0 1 1 2.853-2.853 2.849 2.849 0 0 1-2.853 2.853zm22.387 15.73-8.122 8.122L16.8 29.24a4.761 4.761 0 0 1 3.367-8.122 4.727 4.727 0 0 1 3.367 1.4l1.388 1.382 1.388-1.388a4.758 4.758 0 0 1 6.733 6.724z" transform="translate(-.196 -.196)" style="fill:#7574f9"/>
</svg>
