<svg xmlns="http://www.w3.org/2000/svg" width="34.653" height="42.242" viewBox="0 0 34.653 42.242">
    <path d="M104.994 38.078a.475.475 0 0 1-.016-.173c.042-.458.063-.935.063-1.419a15.591 15.591 0 1 0-31.182 0 12.734 12.734 0 0 0 2.82 8.579c1.585 2.236 3.224 4.549 2.437 10.4l-.455 7.669h16.463a3.281 3.281 0 0 0 .354-2.2c-.053-1.142-.113-2.437 1.1-3.091a9.556 9.556 0 0 1 4.385-.851c.483-.014.939-.028 1.347-.071a2.829 2.829 0 0 0 2.509-1.442 2.926 2.926 0 0 0-.883-2.848.476.476 0 0 1 .209-.762l.131-.044c.431-.144 1.151-.386 1.233-.633a.559.559 0 0 0-.147-.39l-.58-.829a.476.476 0 0 1 .28-.736c.765-.182.925-.427.956-.5a.511.511 0 0 0-.091-.428q-.379-.671-.763-1.344a.476.476 0 0 1 .348-.707c2.159-.3 2.794-.774 2.948-1.117.255-.571-.435-1.6-1.233-2.789a15.207 15.207 0 0 1-2.23-4.276zM80.988 36.5a7.975 7.975 0 0 1 7.49-7.95v-.605a.476.476 0 0 1 .813-.337l1.066 1.066a.476.476 0 0 1 0 .674l-1.067 1.064a.476.476 0 0 1-.813-.337V29.5a7.021 7.021 0 0 0-6.537 7 .476.476 0 0 1-.952 0zm12.186 7.015A7.973 7.973 0 0 1 82.542 41l-.523.3a.476.476 0 0 1-.7-.535l.39-1.459a.476.476 0 0 1 .583-.337l1.456.39a.476.476 0 0 1 .115.872l-.5.288a7.025 7.025 0 0 0 9.337 2.169.476.476 0 0 1 .476.825zm3.646-3.3a.476.476 0 0 1-.115.872l-1.456.39a.476.476 0 0 1-.583-.337l-.39-1.456a.476.476 0 0 1 .7-.536l.495.286a7.023 7.023 0 0 0-2.79-9.161.476.476 0 0 1 .476-.825A7.977 7.977 0 0 1 96.3 39.915z" transform="translate(-73.859 -20.894)" style="fill:#7574f9"/>
</svg>
