<svg xmlns="http://www.w3.org/2000/svg" width="35.477" height="42.242" viewBox="0 0 35.477 42.242">
    <defs>
        <style>
            .cls-1{fill:#357df2}
        </style>
    </defs>
    <g id="call-center-agent" transform="translate(-41)">
        <path id="Path_15823" data-name="Path 15823" class="cls-1" d="M86.543 337.148a14.411 14.411 0 0 1-18.91 0 16.149 16.149 0 0 0-3.45 3.416A15.955 15.955 0 0 0 61 350.171v.165a1.238 1.238 0 0 0 1.238 1.238h29.7a1.238 1.238 0 0 0 1.238-1.238v-.165a15.955 15.955 0 0 0-3.183-9.607 16.151 16.151 0 0 0-3.45-3.416z" transform="translate(-18.35 -309.332)"/>
        <path id="Path_15824" data-name="Path 15824" class="cls-1" d="M125.192 78.091a1.261 1.261 0 0 1 1.271-1.178h7.39a12 12 0 1 0-1.517 2.475h-5.908a1.238 1.238 0 0 1-1.236-1.297z" transform="translate(-64.225 -55.05)"/>
        <path id="Path_15825" data-name="Path 15825" class="cls-1" d="M75.239 11.963h-.326a17.019 17.019 0 0 0-5.646-8.286 16.914 16.914 0 0 0-21.057 0 17.019 17.019 0 0 0-5.646 8.286h-.326A1.238 1.238 0 0 0 41 13.2v4.95a1.238 1.238 0 0 0 1.238 1.238H44.3v-2.475a14.37 14.37 0 0 1 .874-4.95 14.445 14.445 0 0 1 27.136 0 14.37 14.37 0 0 1 .874 4.95v4.95h-3.556l-1.517 2.475h6.3a1.238 1.238 0 0 0 1.241-1.238v-3.784a1.237 1.237 0 0 0 .825-1.166V13.2a1.238 1.238 0 0 0-1.238-1.238z"/>
    </g>
</svg>
