<svg xmlns="http://www.w3.org/2000/svg" width="43.999" height="44" viewBox="0 0 43.999 44">
    <defs>
        <style>
            .cls-1{fill:#7574f9}
        </style>
    </defs>
    <g id="Group_18878" data-name="Group 18878" transform="translate(-199 -1882)">
        <path id="Path_15801" data-name="Path 15801" class="cls-1" d="M85.428 0A21.818 21.818 0 0 0 71.79 4.855l-2.037-1.469-.361 9.281 8.714-3.223-1.933-1.392a16.533 16.533 0 0 1 9.255-2.81A16.79 16.79 0 0 1 102.186 22a16.309 16.309 0 0 1-2.449 8.663l4.048-1.031-.8 5.466A21.88 21.88 0 0 0 85.428 0zm0 0" transform="translate(135.57 1882)"/>
        <path id="Path_15802" data-name="Path 15802" class="cls-1" d="M22 153.505a21.667 21.667 0 0 0 9.462-2.251h.026a20.956 20.956 0 0 0 2.346-1.315c.26.234 2.322 2.176 2.063 1.942.039-.262 1.448-9.837 1.366-9.29l-9.023 2.294 1.573 1.418a16.384 16.384 0 0 1-7.813 1.96 16.79 16.79 0 0 1-16.758-16.758 16.444 16.444 0 0 1 1.47-6.858l-3.481 1.289.258-6.136A21.677 21.677 0 0 0 0 131.505a22.076 22.076 0 0 0 22 22zm0 0" transform="translate(199 1772.495)"/>
        <path id="Path_15803" data-name="Path 15803" class="cls-1" d="M218.734 124.867a3.867 3.867 0 1 1-3.867-3.867 3.867 3.867 0 0 1 3.867 3.867zm0 0" transform="translate(6.133 1771.398)"/>
        <path id="Path_15804" data-name="Path 15804" class="cls-1" d="M166 230.917v5.156h15.469v-5.156a7.7 7.7 0 0 0-3.733-6.589 6.3 6.3 0 0 1-8 0 7.7 7.7 0 0 0-3.736 6.589zm0 0" transform="translate(47.266 1676.95)"/>
    </g>
</svg>
