<svg xmlns="http://www.w3.org/2000/svg" width="80" height="80" viewBox="0 0 80 80">
    <defs>
        <style>
            .cls-2{fill:#ff9c58}
        </style>
    </defs>
    <g id="Group_18885" data-name="Group 18885" transform="translate(-1015 -4585)">
        <rect id="Rectangle_3976" data-name="Rectangle 3976" width="80" height="80" rx="40" transform="translate(1015 4585)" style="opacity:.1;fill:#ff9c58"/>
        <g id="_24-hours" data-name="24-hours" transform="translate(1030.012 4592.222)">
            <path id="Path_15819" data-name="Path 15819" class="cls-2" d="M23.895 48.245a16.358 16.358 0 1 1 16.35-16.35A16.518 16.518 0 0 1 40 34.7a9.647 9.647 0 0 1 2.31 1.426 18.88 18.88 0 1 0-13.535 14.029 9.759 9.759 0 0 1-1.507-2.255 16.549 16.549 0 0 1-3.373.345z"/>
            <path id="Path_15820" data-name="Path 15820" class="cls-2" d="M862.9 846a8.9 8.9 0 1 0 8.9 8.9 8.906 8.906 0 0 0-8.9-8.9zm-1.189 12.865h-3.841a.439.439 0 0 1-.355-.7c.4-.557.807-1.142 1.236-1.79.123-.183.251-.371.376-.551a9.232 9.232 0 0 0 1.353-2.459 1.212 1.212 0 0 0-.1-1.095 1.487 1.487 0 0 0-1.095-.473 1.326 1.326 0 0 0-1.325 1.325.439.439 0 1 1-.878 0 2.2 2.2 0 0 1 2.2-2.2 2.355 2.355 0 0 1 1.756.773 1.981 1.981 0 0 1 .277 1.923 9.894 9.894 0 0 1-1.474 2.7c-.128.186-.248.363-.366.541-.261.395-.515.766-.763 1.121h2.992a.44.44 0 0 1 0 .88zm6.563-3.161h-.716v2.722a.439.439 0 0 1-.878 0V855.7h-2.785a.438.438 0 0 1-.439-.439v-3.9a.439.439 0 0 1 .878 0v3.462h2.346v-2.877a.439.439 0 1 1 .878 0v2.877h.716a.439.439 0 0 1 0 .878z" transform="translate(-826.819 -811.237)"/>
            <path id="Path_15821" data-name="Path 15821" class="cls-2" d="M165.259 159.425h1.97a15.354 15.354 0 0 0-4.219-10.184l-1.393 1.393a.44.44 0 0 1-.622-.622l1.393-1.393A15.354 15.354 0 0 0 152.2 144.4v1.97a.439.439 0 1 1-.878 0v-1.97a15.354 15.354 0 0 0-10.184 4.219l1.393 1.393a.44.44 0 0 1-.622.622l-1.393-1.393a15.353 15.353 0 0 0-4.219 10.184h1.97a.439.439 0 1 1 0 .878H136.3a15.353 15.353 0 0 0 4.219 10.184l1.393-1.393a.44.44 0 1 1 .622.622l-1.393 1.393a15.354 15.354 0 0 0 10.184 4.219v-1.97a.439.439 0 1 1 .878 0v1.97a15.251 15.251 0 0 0 2.584-.29 9.765 9.765 0 0 1 1.745-9.782l-3.655-3.655a2.065 2.065 0 1 1-1.557-3.754V152.1a.439.439 0 1 1 .878 0v5.748a2.068 2.068 0 0 1 1.625 2.017 2.041 2.041 0 0 1-.329 1.116l3.634 3.637a9.792 9.792 0 0 1 9.9-2.268 15.71 15.71 0 0 0 .193-2.046h-1.97a.438.438 0 0 1-.439-.439.452.452 0 0 1 .447-.44z" transform="translate(-127.87 -127.967)"/>
            <path id="Path_15822" data-name="Path 15822" class="cls-2" d="M683.986 690.8h-.094a1.186 1.186 0 1 0 .188 0z" transform="translate(-660.091 -660.091)"/>
        </g>
    </g>
</svg>
