<svg id="shopping-cart" xmlns="http://www.w3.org/2000/svg" width="40.26" height="35.385" viewBox="0 0 40.26 35.385">
    <defs>
        <style>
            .cls-1{fill:#7574f9}
        </style>
    </defs>
    <path id="Path_15812" data-name="Path 15812" class="cls-1" d="M13.053 23.59h21.31a1.176 1.176 0 0 0 1.133-.856l4.718-16.513a1.178 1.178 0 0 0-1.134-1.5H10.33L9.487.924A1.179 1.179 0 0 0 8.335 0H1.179a1.179 1.179 0 0 0 0 2.359h6.209l4.259 19.167a3.536 3.536 0 0 0 1.405 6.782h21.31a1.179 1.179 0 0 0 0-2.359H13.053a1.179 1.179 0 1 1 0-2.359zm0 0"/>
    <path id="Path_15813" data-name="Path 15813" class="cls-1" d="M151 363.542a3.539 3.539 0 1 0 3.539-3.542 3.542 3.542 0 0 0-3.539 3.542zm0 0" transform="translate(-139.127 -331.696)"/>
    <path id="Path_15814" data-name="Path 15814" class="cls-1" d="M362 363.542a3.538 3.538 0 1 0 3.542-3.542 3.542 3.542 0 0 0-3.542 3.542zm0 0" transform="translate(-333.539 -331.696)"/>
</svg>
