<svg xmlns="http://www.w3.org/2000/svg" width="32.033" height="41.182" viewBox="0 0 32.033 41.182">
    <g data-name="bag">
        <path data-name="Path 15459" d="M80.48 13.149a1.471 1.471 0 0 0-1.471-1.383h-5.883V7.354a7.354 7.354 0 1 0-14.708 0v4.412h-5.883a1.471 1.471 0 0 0-1.471 1.383l-1.294 23.37a4.412 4.412 0 0 0 4.155 4.655q.128.007.257.007h23.194a4.412 4.412 0 0 0 4.424-4.404q0-.129-.007-.257zM61.359 7.354a4.412 4.412 0 1 1 8.825 0v4.412h-8.825z" transform="translate(-49.763)" style="fill:#ff9c58"/>
    </g>
</svg>
