<svg xmlns="http://www.w3.org/2000/svg" width="41.563" height="41.563" viewBox="0 0 41.563 41.563">
    <g data-name="Group 18617">
        <path data-name="Path 15816" d="M35.328 37.406V0H6.234v37.406H0v4.156h41.563v-4.156zM18.7 4.156h4.156v4.157H18.7zm0 8.312h4.156v4.156H18.7zm0 8.312h4.156v4.156H18.7zm-4.156 4.156h-4.153v-4.155h4.156zm0-8.312h-4.153v-4.155h4.156zm0-8.313h-4.153V4.156h4.156zm10.393 29.095h-8.312v-8.312h8.312zm6.234-12.469h-4.155v-4.156h4.156zm0-8.312h-4.155v-4.156h4.156zm0-8.313h-4.155V4.156h4.156z" style="fill:#7574f9"/>
    </g>
</svg>
