<svg xmlns="http://www.w3.org/2000/svg" width="50.045" height="49.491" viewBox="0 0 50.045 49.491">
    <defs>
        <style>
            .cls-1{fill:#7574f9}
        </style>
    </defs>
    <g id="XMLID_24_" transform="translate(0 -2.83)">
        <path id="XMLID_313_" class="cls-1" d="M277.518 146.371c.1.008.207.014.312.014a4.356 4.356 0 0 0 4.18-4.513 4.738 4.738 0 0 0-.783-2.629 4.609 4.609 0 0 0 1.887-3.773 4.523 4.523 0 0 0-2.633-4.193 4.846 4.846 0 0 0 .176-1.3 4.379 4.379 0 0 0-3.943-4.506 3.729 3.729 0 0 0-3.589-3.378 3.5 3.5 0 0 0-2.161.758v24.169a4.271 4.271 0 0 0 3 1.253 4.354 4.354 0 0 0 3.554-1.902z" transform="translate(-244.478 -107.609)"/>
        <path id="XMLID_312_" class="cls-1" d="M128.876 122.871a3.435 3.435 0 0 0-2.161-.772 3.729 3.729 0 0 0-3.589 3.378 4.379 4.379 0 0 0-3.943 4.506 4.85 4.85 0 0 0 .176 1.3 4.523 4.523 0 0 0-2.633 4.193 4.609 4.609 0 0 0 1.887 3.773 4.739 4.739 0 0 0-.783 2.629 4.356 4.356 0 0 0 4.18 4.513c.105 0 .209-.006.312-.014a4.355 4.355 0 0 0 3.553 1.9 4.271 4.271 0 0 0 3-1.253v-24.15z" transform="translate(-105.316 -107.611)"/>
        <path id="XMLID_311_" class="cls-1" d="M26.9 41.71a20.531 20.531 0 0 1 14.332-14.353 5.8 5.8 0 0 1-.409-2.14 5.859 5.859 0 0 1 .056-.8A23.44 23.44 0 0 0 23.99 41.245c.186-.018.375-.028.565-.028a5.818 5.818 0 0 1 2.345.493z" transform="translate(-21.645 -19.477)"/>
        <path id="XMLID_310_" class="cls-1" d="M26.9 310.664a5.816 5.816 0 0 1-2.346.492c-.191 0-.379-.01-.565-.028a23.44 23.44 0 0 0 16.89 16.828 5.781 5.781 0 0 1 .353-2.94A20.531 20.531 0 0 1 26.9 310.664z" transform="translate(-21.645 -277.745)"/>
        <path id="XMLID_309_" class="cls-1" d="M325.937 41.71a5.816 5.816 0 0 1 2.346-.492c.191 0 .379.01.565.028a23.44 23.44 0 0 0-16.89-16.828 5.781 5.781 0 0 1-.353 2.941 20.531 20.531 0 0 1 14.332 14.351z" transform="translate(-281.149 -19.477)"/>
        <path id="XMLID_70_" class="cls-1" d="M325.937 310.664a20.532 20.532 0 0 1-14.331 14.352 5.8 5.8 0 0 1 .409 2.14 5.858 5.858 0 0 1-.056.8 23.44 23.44 0 0 0 16.89-16.828 5.872 5.872 0 0 1-.565.028 5.818 5.818 0 0 1-2.346-.492z" transform="translate(-281.149 -277.745)"/>
        <path id="XMLID_45_" class="cls-1" d="M229.136 8.65a2.91 2.91 0 1 0-2.91-2.91 2.91 2.91 0 0 0 2.91 2.91z" transform="translate(-204.114)"/>
        <path id="XMLID_44_" class="cls-1" d="M455.363 226.227a2.91 2.91 0 1 0 2.91 2.91 2.91 2.91 0 0 0-2.91-2.91z" transform="translate(-408.229 -201.561)"/>
        <path id="XMLID_43_" class="cls-1" d="M5.82 229.136a2.91 2.91 0 1 0-2.91 2.91 2.91 2.91 0 0 0 2.91-2.91z" transform="translate(0 -201.561)"/>
        <path id="XMLID_8_" class="cls-1" d="M229.136 449.622a2.91 2.91 0 1 0 2.91 2.91 2.91 2.91 0 0 0-2.91-2.91z" transform="translate(-204.114 -403.121)"/>
    </g>
</svg>
