<svg xmlns="http://www.w3.org/2000/svg" width="49.475" height="44.129" viewBox="0 0 49.475 44.129">
    <defs>
        <style>
            .cls-1{fill:#7574f9}
        </style>
    </defs>
    <g id="market-analysis_1_" data-name="market-analysis (1)" transform="translate(0 -27.665)">
        <g id="Group_18834" data-name="Group 18834" transform="translate(3.384 27.665)">
            <g id="Group_18833" data-name="Group 18833">
                <path id="Path_15846" data-name="Path 15846" class="cls-1" d="m78.5 39-1.484 3.072a22.072 22.072 0 0 0-41.992 1.869l2.8.761a19.168 19.168 0 0 1 36.396-1.817l-3.033-1.419-1.231 2.634 7.59 3.551 3.568-7.389z" transform="translate(-35.023 -27.665)"/>
            </g>
        </g>
        <g id="Group_18836" data-name="Group 18836" transform="translate(0 51.817)">
            <g id="Group_18835" data-name="Group 18835">
                <path id="Path_15847" data-name="Path 15847" class="cls-1" d="M43.178 280.534A19.168 19.168 0 0 1 6.756 282.3l3.171 1.484 1.231-2.63-7.59-3.551L0 285l2.615 1.263 1.421-2.942a22.263 22.263 0 0 0 7.225 9.718 21.861 21.861 0 0 0 13.419 4.548 22.1 22.1 0 0 0 21.3-16.292z" transform="translate(0 -277.607)"/>
            </g>
        </g>
        <g id="Group_18838" data-name="Group 18838" transform="translate(10.894 38.407)">
            <g id="Group_18837" data-name="Group 18837">
                <path id="Path_15848" data-name="Path 15848" class="cls-1" d="M138.33 158.57v-19.741h-6v19.741h-2.9v-15.385h-5.712v15.385h-2.9V147.8h-5.84v10.77h-2.227v2.9h27.687v-2.9z" transform="translate(-112.741 -138.829)"/>
            </g>
        </g>
    </g>
</svg>
