<svg width="432" height="433" xmlns="http://www.w3.org/2000/svg" xmlns:xlink="http://www.w3.org/1999/xlink" xml:space="preserve" overflow="hidden"><defs><clipPath id="clip0"><rect x="172" y="264" width="432" height="433"/></clipPath><clipPath id="clip1"><rect x="172" y="265" width="432" height="432"/></clipPath><clipPath id="clip2"><rect x="172" y="265" width="432" height="432"/></clipPath><clipPath id="clip3"><rect x="172" y="265" width="432" height="432"/></clipPath></defs><g clip-path="url(#clip0)" transform="translate(-172 -264)"><g clip-path="url(#clip1)"><g clip-path="url(#clip2)"><g clip-path="url(#clip3)"><path d="M589.356 477.38C589.34 517.815 556.569 550.586 516.135 550.602L267.186 550.602C237.572 550.605 210.872 532.768 199.537 505.405 188.206 478.046 194.475 446.551 215.42 425.615 222.48 418.539 230.934 413.005 240.242 409.36 225.825 379.855 227.631 345.007 245.021 317.15 262.41 289.297 292.927 272.369 325.764 272.366 362.579 272.362 396.101 293.571 411.869 326.84 430.965 314.042 455.556 312.806 475.842 323.62 496.125 334.437 508.801 355.548 508.814 378.533 508.831 387.376 506.932 396.12 503.248 404.162L516.135 404.162C556.569 404.175 589.34 436.95 589.356 477.38Z" fill="#B0D3F0" fill-rule="nonzero" fill-opacity="1"/><path d="M589.356 477.38C589.34 517.815 556.569 550.586 516.135 550.602L267.186 550.602C226.755 550.586 193.98 517.815 193.967 477.38 193.967 474.965 194.112 472.549 194.333 470.205 198.176 507.558 229.639 535.952 267.186 535.958L516.135 535.958C553.678 535.935 585.131 507.548 588.99 470.205 589.208 472.549 589.356 474.965 589.356 477.38Z" fill="#90BAE1" fill-rule="nonzero" fill-opacity="1"/><path d="M508.327 525.049C502.536 462.704 448.75 415.935 386.207 418.852 323.664 421.769 274.469 473.346 274.509 535.958 274.473 552.688 278.069 569.227 285.053 584.428 302.841 623.639 340.724 649.917 383.679 652.844 385.726 653.006 387.75 652.31 389.262 650.923 390.778 649.535 391.645 647.581 391.662 645.527L391.662 535.958 493.386 576.65C495.291 577.398 497.421 577.322 499.266 576.442 501.115 575.565 502.513 573.96 503.132 572.009 508.04 556.871 509.807 540.892 508.327 525.049Z" fill="#2FA8CC" fill-rule="nonzero" fill-opacity="1"/><path d="M391.662 535.958 285.053 584.428C278.069 569.227 274.473 552.688 274.509 535.958 274.469 500.356 290.636 466.669 318.44 444.431Z" fill="#955BA5" fill-rule="nonzero" fill-opacity="1"/><path d="M508.327 525.049C509.807 540.892 508.04 556.874 503.132 572.012 502.513 573.96 501.115 575.569 499.266 576.445 497.421 577.325 495.291 577.398 493.386 576.65L391.662 535.958 318.44 444.431C352.088 417.534 397.779 411.258 437.432 428.094 477.085 444.929 504.309 482.156 508.327 525.049Z" fill="#F29C1F" fill-rule="nonzero" fill-opacity="1"/><path d="M391.662 535.958 391.662 645.527C391.645 647.581 390.778 649.535 389.262 650.923 387.75 652.31 385.726 653.006 383.679 652.844 340.724 649.917 302.841 623.639 285.053 584.428Z" fill="#2FA8CC" fill-rule="nonzero" fill-opacity="1"/><path d="M526.477 630.686C508.251 668.678 470.994 693.924 428.952 696.772 426.901 696.943 424.875 696.251 423.358 694.864 421.839 693.476 420.966 691.522 420.949 689.465L420.949 590.703C420.949 588.274 422.155 586.003 424.166 584.642 426.18 583.281 428.734 583.004 430.992 583.907L522.644 620.567C524.542 621.342 526.036 622.875 526.761 624.793 527.489 626.711 527.387 628.847 526.477 630.686Z" fill="#FF5364" fill-rule="nonzero" fill-opacity="1"/><path d="M223.255 499.348C219.804 499.311 216.854 496.849 216.208 493.461 215.559 490.07 217.391 486.695 220.585 485.389 223.782 484.084 227.453 485.211 229.362 488.086 231.273 490.96 230.894 494.783 228.452 497.225 227.048 498.56 225.193 499.318 223.255 499.348Z" fill="#4482C3" fill-rule="nonzero" fill-opacity="1"/><path d="M252.542 499.348C249.091 499.311 246.145 496.849 245.495 493.461 244.846 490.07 246.678 486.695 249.872 485.389 253.069 484.084 256.741 485.211 258.652 488.086 260.561 490.96 260.182 494.783 257.74 497.225 256.335 498.56 254.48 499.318 252.542 499.348Z" fill="#4482C3" fill-rule="nonzero" fill-opacity="1"/><path d="M252.542 528.635C249.091 528.602 246.145 526.137 245.495 522.748 244.846 519.357 246.678 515.982 249.872 514.677 253.069 513.372 256.741 514.499 258.652 517.373 260.561 520.247 260.182 524.07 257.74 526.512 256.335 527.847 254.48 528.605 252.542 528.635Z" fill="#4482C3" fill-rule="nonzero" fill-opacity="1"/><path d="M530.778 499.348C527.328 499.311 524.381 496.849 523.732 493.461 523.086 490.07 524.915 486.695 528.112 485.389 531.306 484.084 534.977 485.211 536.889 488.086 538.801 490.96 538.418 494.783 535.979 497.225 534.575 498.56 532.716 499.318 530.778 499.348Z" fill="#4482C3" fill-rule="nonzero" fill-opacity="1"/><path d="M530.778 528.543C527.328 528.51 524.381 526.048 523.732 522.656 523.086 519.268 524.915 515.89 528.112 514.585 531.306 513.279 534.977 514.41 536.889 517.284 538.801 520.158 538.418 523.981 535.979 526.42 534.575 527.758 532.716 528.516 530.778 528.543Z" fill="#4482C3" fill-rule="nonzero" fill-opacity="1"/><path d="M560.069 499.348C556.618 499.311 553.668 496.849 553.019 493.461 552.373 490.07 554.206 486.695 557.399 485.389 560.593 484.084 564.268 485.211 566.176 488.086 568.088 490.96 567.706 494.783 565.267 497.225 563.863 498.56 562.007 499.318 560.069 499.348Z" fill="#4482C3" fill-rule="nonzero" fill-opacity="1"/><path d="M237.898 631.144C233.854 631.144 230.575 627.865 230.575 623.82L230.575 616.5C230.575 612.456 233.854 609.177 237.898 609.177 241.942 609.177 245.222 612.456 245.222 616.5L245.222 623.82C245.222 627.865 241.942 631.144 237.898 631.144Z" fill="#F0C419" fill-rule="nonzero" fill-opacity="1"/><path d="M237.898 667.755C233.854 667.755 230.575 664.475 230.575 660.431L230.575 653.111C230.575 649.067 233.854 645.788 237.898 645.788 241.942 645.788 245.222 649.067 245.222 653.111L245.222 660.431C245.222 664.475 241.942 667.755 237.898 667.755Z" fill="#F0C419" fill-rule="nonzero" fill-opacity="1"/><path d="M223.255 645.788 215.931 645.788C211.887 645.788 208.611 642.508 208.611 638.467 208.611 634.423 211.887 631.144 215.931 631.144L223.255 631.144C227.299 631.144 230.575 634.423 230.575 638.467 230.575 642.508 227.299 645.788 223.255 645.788Z" fill="#F0C419" fill-rule="nonzero" fill-opacity="1"/><path d="M259.865 645.788 252.542 645.788C248.498 645.788 245.222 642.508 245.222 638.467 245.222 634.423 248.498 631.144 252.542 631.144L259.865 631.144C263.909 631.144 267.186 634.423 267.186 638.467 267.186 642.508 263.909 645.788 259.865 645.788Z" fill="#F0C419" fill-rule="nonzero" fill-opacity="1"/><path d="M574.713 330.94C558.536 330.94 545.425 317.829 545.425 301.653 545.425 285.477 558.536 272.366 574.713 272.366 590.886 272.366 604 285.477 604 301.653 603.98 317.819 590.879 330.924 574.713 330.94ZM574.713 287.009C566.625 287.009 560.069 293.565 560.069 301.653 560.069 309.741 566.625 316.297 574.713 316.297 582.801 316.297 589.356 309.741 589.356 301.653 589.346 293.568 582.797 287.016 574.713 287.009Z" fill="#2FA8CC" fill-rule="nonzero" fill-opacity="1"/><path d="M201.287 323.617C185.114 323.617 172 310.506 172 294.33 172 278.157 185.114 265.042 201.287 265.042 217.464 265.042 230.575 278.157 230.575 294.33 230.558 310.499 217.457 323.6 201.287 323.617ZM201.287 279.686C193.199 279.686 186.644 286.241 186.644 294.33 186.644 302.418 193.199 308.973 201.287 308.973 209.375 308.973 215.931 302.418 215.931 294.33 215.924 286.245 209.372 279.696 201.287 279.686Z" fill="#955BA5" fill-rule="nonzero" fill-opacity="1"/></g></g></g></g></svg>