<svg xmlns="http://www.w3.org/2000/svg" width="81.02" height="54.014" viewBox="0 0 81.02 54.014">
    <defs>
        <style>
            .cls-2{fill:#ffda44}
        </style>
    </defs>
    <g id="angola" transform="translate(0 -85.331)">
        <path id="Rectangle_3088" d="M0 0H81.02V54.014H0z" transform="translate(0 85.331)"/>
        <path id="Rectangle_3089" fill="#d80027" d="M0 0H81.02V27.006H0z" transform="translate(0 85.331)"/>
        <g id="Group_7887" transform="translate(29.243 98.838)">
            <path id="Path_5554" d="M232.6 206.745l2.29 1.662-.872 2.691 2.288-1.664 2.29 1.661-.876-2.69 2.28-1.665h-2.829l-.876-2.69-.873 2.691z" class="cls-2" transform="translate(-225.034 -198.773)"/>
            <path id="Path_5555" d="M202.818 172.494a13.415 13.415 0 0 0-6.752-1.8v3.522a9.981 9.981 0 1 1-8.326 15.474l-2.941 1.942a13.5 13.5 0 1 0 18.018-19.133z" class="cls-2" transform="translate(-184.8 -170.69)"/>
            <path id="Path_5556" d="M204.49 241.154a3.523 3.523 0 0 0 1.4 4.781l11.441 6.251a2.84 2.84 0 0 0 1.057 3.931l3.091 1.69a2.936 2.936 0 0 0 3.984-1.167l1.69-3.09z" class="cls-2" transform="translate(-201.01 -230.004)"/>
        </g>
    </g>
</svg>
