<svg width="721" height="433" xmlns="http://www.w3.org/2000/svg" xmlns:xlink="http://www.w3.org/1999/xlink" xml:space="preserve" overflow="hidden"><defs><clipPath id="clip0"><rect x="76" y="33" width="721" height="433"/></clipPath><clipPath id="clip1"><rect x="76" y="34" width="721" height="432"/></clipPath><clipPath id="clip2"><rect x="76" y="34" width="721" height="432"/></clipPath><clipPath id="clip3"><rect x="76" y="34" width="721" height="432"/></clipPath></defs><g clip-path="url(#clip0)" transform="translate(-76 -33)"><g clip-path="url(#clip1)"><g clip-path="url(#clip2)"><g clip-path="url(#clip3)"><path d="M763.072 635.544C763.072 648.3 752.455 658.671 739.291 658.671L216.778 658.671C203.637 658.671 193.011 648.3 193.011 635.544L193.011 317.368C193.011 304.606 203.637 294.256 216.778 294.256L739.291 294.256C752.455 294.256 763.072 304.606 763.072 317.368L763.072 635.544" fill="#E6F0FA" fill-rule="nonzero" fill-opacity="1" transform="matrix(1 0 0 1.00051 -19.3372 -208.023)"/><path d="M739.291 294.256 216.778 294.256C203.637 294.256 193.011 304.606 193.011 317.368L193.011 360.278 763.072 360.278 763.072 317.368C763.072 304.606 752.455 294.256 739.291 294.256" fill="#D3DFF3" fill-rule="nonzero" fill-opacity="1" transform="matrix(1 0 0 1.00051 -19.3372 -208.023)"/><path d="M738.108 456.138 220.916 456.138 220.916 389.627 738.108 389.627 738.108 456.138" fill="#F3F8FD" fill-rule="nonzero" fill-opacity="1" transform="matrix(1 0 0 1.00051 -19.3372 -208.023)"/><path d="M738.108 540.789 220.916 540.789 220.916 474.277 738.108 474.277 738.108 540.789" fill="#F3F8FD" fill-rule="nonzero" fill-opacity="1" transform="matrix(1 0 0 1.00051 -19.3372 -208.023)"/><path d="M738.108 619.384 220.916 619.384 220.916 552.879 738.108 552.879 738.108 619.384" fill="#F3F8FD" fill-rule="nonzero" fill-opacity="1" transform="matrix(1 0 0 1.00051 -19.3372 -208.023)"/><path d="M192.612 659.277 114.26 659.277 114.26 537.386 192.612 537.386 192.612 659.277" fill="#2B3888" fill-rule="nonzero" fill-opacity="1" transform="matrix(1 0 0 1.00051 -19.3372 -208.023)"/><path d="M290.314 659.277 211.948 659.277 211.948 499.655 290.314 499.655 290.314 659.277" fill="#DA72C0" fill-rule="nonzero" fill-opacity="1" transform="matrix(1 0 0 1.00051 -19.3372 -208.023)"/><path d="M386.084 659.277 307.727 659.277 307.727 461.929 386.084 461.929 386.084 659.277" fill="#6889CE" fill-rule="nonzero" fill-opacity="1" transform="matrix(1 0 0 1.00051 -19.3372 -208.023)"/><path d="M486.044 659.277 407.687 659.277 407.687 406.788 486.044 406.788 486.044 659.277" fill="#2B3888" fill-rule="nonzero" fill-opacity="1" transform="matrix(1 0 0 1.00051 -19.3372 -208.023)"/><path d="M584.244 659.277 505.88 659.277 505.88 497.489 584.244 497.489 584.244 659.277" fill="#F9C614" fill-rule="nonzero" fill-opacity="1" transform="matrix(1 0 0 1.00051 -19.3372 -208.023)"/><path d="M687.742 659.277 609.394 659.277 609.394 354.553 687.742 354.553 687.742 659.277" fill="#DA72C0" fill-rule="nonzero" fill-opacity="1" transform="matrix(1 0 0 1.00051 -19.3372 -208.023)"/><path d="M799.209 412.264C793.81 412.264 789.415 416.651 789.415 422.043 789.415 427.427 793.81 431.814 799.209 431.814 804.601 431.814 808.988 427.427 808.988 422.043 808.988 416.651 804.601 412.264 799.209 412.264ZM799.209 439.003C789.845 439.003 782.235 431.394 782.235 422.043 782.235 412.684 789.845 405.084 799.209 405.084 808.562 405.084 816.172 412.684 816.172 422.043 816.172 431.394 808.562 439.003 799.209 439.003" fill="#6889CE" fill-rule="nonzero" fill-opacity="1" transform="matrix(1 0 0 1.00051 -19.3372 -208.023)"/><path d="M795.922 484.493 802.302 484.493 802.302 475.727 795.922 475.727 795.922 484.493" fill="#DF82C7" fill-rule="nonzero" fill-opacity="1" transform="matrix(1 0 0 1.00051 -19.3372 -208.023)"/><path d="M795.922 497.562 802.302 497.562 802.302 488.788 795.922 488.788 795.922 497.562" fill="#DF82C7" fill-rule="nonzero" fill-opacity="1" transform="matrix(1 0 0 1.00051 -19.3372 -208.023)"/><path d="M795.922 510.619 802.302 510.619 802.302 501.855 795.922 501.855 795.922 510.619" fill="#DF82C7" fill-rule="nonzero" fill-opacity="1" transform="matrix(1 0 0 1.00051 -19.3372 -208.023)"/><path d="M795.922 523.678 802.302 523.678 802.302 514.912 795.922 514.912 795.922 523.678" fill="#DF82C7" fill-rule="nonzero" fill-opacity="1" transform="matrix(1 0 0 1.00051 -19.3372 -208.023)"/><path d="M795.922 536.739 802.302 536.739 802.302 527.966 795.922 527.966 795.922 536.739" fill="#DF82C7" fill-rule="nonzero" fill-opacity="1" transform="matrix(1 0 0 1.00051 -19.3372 -208.023)"/><path d="M795.922 549.804 802.302 549.804 802.302 541.03 795.922 541.03 795.922 549.804" fill="#DF82C7" fill-rule="nonzero" fill-opacity="1" transform="matrix(1 0 0 1.00051 -19.3372 -208.023)"/><path d="M795.922 562.857 802.302 562.857 802.302 554.097 795.922 554.097 795.922 562.857" fill="#DF82C7" fill-rule="nonzero" fill-opacity="1" transform="matrix(1 0 0 1.00051 -19.3372 -208.023)"/><path d="M558.298 271.552 533.369 247.018 538.411 241.891 563.344 266.433 558.298 271.552" fill="#6889CE" fill-rule="nonzero" fill-opacity="1" transform="matrix(1 0 0 1.00051 -19.3372 -208.023)"/><path d="M538.675 271.509 533.598 266.426 558.041 241.938 563.122 247.024 538.675 271.509" fill="#6889CE" fill-rule="nonzero" fill-opacity="1" transform="matrix(1 0 0 1.00051 -19.3372 -208.023)"/><path d="M243.472 543.367 171.339 504.332 119.205 541.261 115.045 535.393 170.833 495.884 239.953 533.29 315.272 356.554 378.045 479.716 455.852 385.091 531.979 471.362 582.157 412.231 661.026 524.379 655.142 528.521 581.621 423.966 532.093 482.355 456.055 396.162 376.627 492.758 315.849 373.518 243.472 543.367" fill="#6889CE" fill-rule="nonzero" fill-opacity="1" transform="matrix(1 0 0 1.00051 -19.3372 -208.023)"/><path d="M669.414 521.449C669.414 527.7 664.35 532.779 658.079 532.779 651.821 532.779 646.748 527.7 646.748 521.449 646.748 515.18 651.821 510.104 658.079 510.104 664.35 510.104 669.414 515.18 669.414 521.449" fill="#6889CE" fill-rule="nonzero" fill-opacity="1" transform="matrix(1 0 0 1.00051 -19.3372 -208.023)"/><path d="M543.359 476.857C543.359 483.112 538.293 488.179 532.039 488.179 525.773 488.179 520.701 483.112 520.701 476.857 520.701 470.602 525.773 465.526 532.039 465.526 538.293 465.526 543.359 470.602 543.359 476.857" fill="#6889CE" fill-rule="nonzero" fill-opacity="1" transform="matrix(1 0 0 1.00051 -19.3372 -208.023)"/><path d="M593.204 420.934C593.204 427.186 588.147 432.257 581.904 432.257 575.634 432.257 570.558 427.186 570.558 420.934 570.558 414.673 575.634 409.597 581.904 409.597 588.147 409.597 593.204 414.673 593.204 420.934" fill="#6889CE" fill-rule="nonzero" fill-opacity="1" transform="matrix(1 0 0 1.00051 -19.3372 -208.023)"/><path d="M467.287 390.627C467.287 396.896 462.208 401.962 455.952 401.962 449.679 401.962 444.615 396.896 444.615 390.627 444.615 384.369 449.679 379.297 455.952 379.297 462.208 379.297 467.287 384.369 467.287 390.627" fill="#6889CE" fill-rule="nonzero" fill-opacity="1" transform="matrix(1 0 0 1.00051 -19.3372 -208.023)"/><path d="M391.543 483.115C391.543 489.386 386.463 494.457 380.216 494.457 373.95 494.457 368.877 489.386 368.877 483.115 368.877 476.857 373.95 471.785 380.216 471.785 386.463 471.785 391.543 476.857 391.543 483.115" fill="#6889CE" fill-rule="nonzero" fill-opacity="1" transform="matrix(1 0 0 1.00051 -19.3372 -208.023)"/><path d="M327.17 362.988C327.17 369.239 322.114 374.318 315.868 374.318 309.586 374.318 304.522 369.239 304.522 362.988 304.522 356.714 309.586 351.643 315.868 351.643 322.114 351.643 327.17 356.714 327.17 362.988" fill="#6889CE" fill-rule="nonzero" fill-opacity="1" transform="matrix(1 0 0 1.00051 -19.3372 -208.023)"/><path d="M253.036 538.327C253.036 544.583 247.987 549.654 241.726 549.654 235.452 549.654 230.387 544.583 230.387 538.327 230.387 532.061 235.452 526.989 241.726 526.989 247.987 526.989 253.036 532.061 253.036 538.327" fill="#6889CE" fill-rule="nonzero" fill-opacity="1" transform="matrix(1 0 0 1.00051 -19.3372 -208.023)"/><path d="M186.245 499.521C186.245 505.787 181.168 510.86 174.913 510.86 168.653 510.86 163.582 505.787 163.582 499.521 163.582 493.267 168.653 488.179 174.913 488.179 181.168 488.179 186.245 493.267 186.245 499.521" fill="#6889CE" fill-rule="nonzero" fill-opacity="1" transform="matrix(1 0 0 1.00051 -19.3372 -208.023)"/><path d="M128.434 532.779C128.434 539.042 123.363 544.11 117.123 544.11 110.85 544.11 105.779 539.042 105.779 532.779 105.779 526.513 110.85 521.449 117.123 521.449 123.363 521.449 128.434 526.513 128.434 532.779" fill="#6889CE" fill-rule="nonzero" fill-opacity="1" transform="matrix(1 0 0 1.00051 -19.3372 -208.023)"/><path d="M228.857 406.504 95.4661 406.504 95.4661 400.886 228.857 400.886 228.857 406.504" fill="#DA72C0" fill-rule="nonzero" fill-opacity="1" transform="matrix(1 0 0 1.00051 -19.3372 -208.023)"/><path d="M171.438 424.849 97.8803 424.849 97.8803 419.246 171.438 419.246 171.438 424.849" fill="#DA72C0" fill-rule="nonzero" fill-opacity="1" transform="matrix(1 0 0 1.00051 -19.3372 -208.023)"/><path d="M638.531 519.951C647.669 537.296 664.565 558.506 668.822 571.004 669.513 572.984 669.428 573.802 663.36 577.307 657.261 580.813 664.465 583.134 675.718 580.283 686.978 577.433 667.735 524.738 656.116 500.658 645.97 479.612 627.903 499.832 638.531 519.951" fill="#FABCAD" fill-rule="nonzero" fill-opacity="1" transform="matrix(1 0 0 1.00051 -19.3372 -208.023)"/><path d="M679.276 573.711C679.276 573.711 670.382 580.233 663.36 577.308 663.36 577.308 652.646 581.475 660.264 582.879 667.934 584.275 681.975 583.674 679.276 573.711" fill="#2E2D52" fill-rule="nonzero" fill-opacity="1" transform="matrix(1 0 0 1.00051 -19.3372 -208.023)"/><path d="M670.678 459.964C670.678 459.964 624.762 438.099 619.891 460.66 615.499 480.958 653.825 554.594 653.825 554.594 653.825 554.594 667.075 557.423 677.261 548.504 677.261 548.504 659.511 510.844 666.956 501.37 671.425 495.703 695.821 500.709 695.821 500.709L689.162 468.189 670.678 459.964" fill="#E42723" fill-rule="nonzero" fill-opacity="1" transform="matrix(1 0 0 1.00051 -19.3372 -208.023)"/><path d="M703.823 598.789C706.37 618.21 714.82 643.977 714.466 657.191 714.387 659.286 714.046 660.056 707.122 661.209 700.216 662.37 706.151 667.055 717.689 668.302 729.222 669.526 729.549 613.47 727.048 586.846 724.842 563.578 700.869 576.225 703.823 598.789" fill="#FABCAD" fill-rule="nonzero" fill-opacity="1" transform="matrix(1 0 0 1.00051 -19.3372 -208.023)"/><path d="M723.308 663.379C723.308 663.379 712.703 666.415 707.12 661.209 707.12 661.209 695.623 661.399 702.324 665.347 709.016 669.328 722.381 673.664 723.308 663.379" fill="#2E2D52" fill-rule="nonzero" fill-opacity="1" transform="matrix(1 0 0 1.00051 -19.3372 -208.023)"/><path d="M732.74 472.027 729.108 643.079 708.839 642.511 682.815 465.973C682.815 465.973 698.099 474.185 732.74 472.027" fill="#EF322C" fill-rule="nonzero" fill-opacity="1" transform="matrix(1 0 0 1.00051 -19.3372 -208.023)"/><path d="M731.994 507.23 732.74 472.027C710.785 473.396 696.638 470.595 689.203 468.358L689.162 468.191 670.677 459.964C670.677 459.964 668.299 458.83 664.568 457.348 663.975 462.147 663.921 487.198 731.994 507.23" fill="#1D1D33" fill-rule="nonzero" fill-opacity="1" transform="matrix(1 0 0 1.00051 -19.3372 -208.023)"/><path d="M682.625 419.815C682.625 419.815 699.734 414.859 699.769 393.353 699.834 371.89 687.376 322.676 687.594 314.736 688.021 300.169 710.032 299.237 701.703 298.504 690.958 297.568 684.218 292.497 681.639 303.611 679.863 311.281 671.377 384.902 672.348 397.356 673.324 409.814 670.536 419.307 682.625 419.815" fill="#FABCAD" fill-rule="nonzero" fill-opacity="1" transform="matrix(1 0 0 1.00051 -19.3372 -208.023)"/><path d="M733.493 483.037C733.529 483.021 733.557 483.011 733.576 483.011 733.576 483.011 733.529 483.021 733.493 483.037 733.427 482.496 733.381 481.99 733.321 481.444 732.055 460.268 730.349 446.699 740.852 427.946 755.891 401.026 734.545 392.892 721.608 387.657 708.7 382.411 686.395 377.988 675.484 400.192 667.61 416.214 662.629 439.52 665.741 457.827 669.279 478.634 738.422 506.877 733.493 483.037" fill="#FACD08" fill-rule="nonzero" fill-opacity="1" transform="matrix(1 0 0 1.00051 -19.3372 -208.023)"/><path d="M738.781 381.015C738.781 381.015 727.023 383.844 727.265 393.507 727.554 403.45 695.615 389.664 701.086 386.251 708.134 381.867 714.596 382.09 719.491 372.979L738.781 381.015" fill="#F7A497" fill-rule="nonzero" fill-opacity="1" transform="matrix(1 0 0 1.00051 -19.3372 -208.023)"/><path d="M744.087 354.418C734.545 353.097 707.065 365.402 706.667 375.181 706.5 379.427 717.249 387.802 732.464 386.319 738.721 385.726 749.061 382.912 753.473 372.549 755.467 367.841 755.215 355.989 744.087 354.418" fill="#FABCAD" fill-rule="nonzero" fill-opacity="1" transform="matrix(1 0 0 1.00051 -19.3372 -208.023)"/><path d="M736.871 351.044C733.045 352.111 732.676 352.99 738.246 362.621 743.808 372.248 745.561 373.258 742.788 374.039 734.747 376.284 740.81 381.466 731.16 384.072 721.469 386.691 731.59 390.382 739.996 388.857 741.694 388.529 750.314 387.51 755.884 376.196 762.404 362.982 750.922 347.149 736.871 351.044" fill="#2E2D52" fill-rule="nonzero" fill-opacity="1" transform="matrix(1 0 0 1.00051 -19.3372 -208.023)"/><path d="M755.887 376.194C751.182 387.135 741.696 388.53 739.997 388.857 733.739 389.973 726.419 388.302 727.263 386.178 728.295 383.62 733.397 388.549 737.234 382.957 741.021 377.398 744.763 379.867 748.531 375.568 752.303 371.241 748.829 368.651 742.57 357.774 740.012 353.358 740.917 351.38 742.897 350.591 753.899 351.836 760.858 364.669 755.887 376.194" fill="#2E2D52" fill-rule="nonzero" fill-opacity="1" transform="matrix(1 0 0 1.00051 -19.3372 -208.023)"/><path d="M730.555 426.78C730.555 426.78 744.105 433.132 754.436 414.279 764.785 395.441 785.945 347.296 788.508 339.79 792.275 328.698 804.898 316.413 803.091 308.289 801.268 300.112 793.643 317.297 786.044 325.845 780.81 331.716 739.143 390.251 734.036 401.644 728.936 413.065 720.186 420.536 730.555 426.78" fill="#FABCAD" fill-rule="nonzero" fill-opacity="1" transform="matrix(1 0 0 1.00051 -19.3372 -208.023)"/><path d="M723.717 637.554C723.712 637.554 723.699 637.554 723.699 637.554 723.371 637.533 723.129 637.268 723.138 636.932 723.762 625.413 723.552 585.661 723.36 550.599 723.25 526.648 723.134 505.959 723.295 497.505 723.295 497.178 723.583 496.961 723.881 496.935 724.206 496.943 724.455 497.195 724.446 497.531 724.291 505.966 724.401 526.648 724.531 550.584 724.722 585.677 724.922 625.432 724.295 637.008 724.291 637.306 724.023 637.554 723.717 637.554" fill="#FFFFFF" fill-rule="nonzero" fill-opacity="1" transform="matrix(1 0 0 1.00051 -19.3372 -208.023)"/></g></g></g></g></svg>