<svg xmlns="http://www.w3.org/2000/svg" width="60.997" height="61.002" viewBox="0 0 60.997 61.002">
  <defs>
    <style>
      .cls-1 {
        fill: #fff;
      }
    </style>
  </defs>
  <path id="Exclusion_1" data-name="Exclusion 1" class="cls-1" d="M10844.494,22125.5a30.409,30.409,0,1,1,11.869-2.4A30.3,30.3,0,0,1,10844.494,22125.5Zm-3.891-38.947a1.46,1.46,0,0,0-1.457,1.455v14.57a1.455,1.455,0,0,0,.749,1.271,1.429,1.429,0,0,0,.706.184,1.415,1.415,0,0,0,.771-.223l11.655-7.279a1.458,1.458,0,0,0,0-2.471l-11.655-7.285A1.437,1.437,0,0,0,10840.6,22086.555Z" transform="translate(-10813.992 -22064.5)"/>
</svg>
